<svg id="visual" viewBox="0 0 900 600" width="900" height="600" xmlns="http://www.w3.org/2000/svg" xmlns:xlink="http://www.w3.org/1999/xlink" version="1.1"><rect x="0" y="0" width="900" height="600" fill="#ffffff"></rect><defs><linearGradient id="grad1_0" x1="33.3%" y1="0%" x2="100%" y2="100%"><stop offset="20%" stop-color="#ff9300" stop-opacity="1"></stop><stop offset="80%" stop-color="#ff9300" stop-opacity="1"></stop></linearGradient></defs><defs><linearGradient id="grad1_1" x1="33.3%" y1="0%" x2="100%" y2="100%"><stop offset="20%" stop-color="#ff9300" stop-opacity="1"></stop><stop offset="80%" stop-color="#ffc88e" stop-opacity="1"></stop></linearGradient></defs><defs><linearGradient id="grad1_2" x1="33.3%" y1="0%" x2="100%" y2="100%"><stop offset="20%" stop-color="#ffffff" stop-opacity="1"></stop><stop offset="80%" stop-color="#ffc88e" stop-opacity="1"></stop></linearGradient></defs><defs><linearGradient id="grad2_0" x1="0%" y1="0%" x2="66.7%" y2="100%"><stop offset="20%" stop-color="#ff9300" stop-opacity="1"></stop><stop offset="80%" stop-color="#ff9300" stop-opacity="1"></stop></linearGradient></defs><defs><linearGradient id="grad2_1" x1="0%" y1="0%" x2="66.7%" y2="100%"><stop offset="20%" stop-color="#ffc88e" stop-opacity="1"></stop><stop offset="80%" stop-color="#ff9300" stop-opacity="1"></stop></linearGradient></defs><defs><linearGradient id="grad2_2" x1="0%" y1="0%" x2="66.7%" y2="100%"><stop offset="20%" stop-color="#ffc88e" stop-opacity="1"></stop><stop offset="80%" stop-color="#ffffff" stop-opacity="1"></stop></linearGradient></defs><g transform="translate(900, 0)"><path d="M0 486.7C-94 479.1 -187.9 471.5 -243.4 421.5C-298.8 371.6 -315.7 279.3 -349.9 202C-384 124.7 -435.4 62.3 -486.7 0L0 0Z" fill="#ffe4c6"></path><path d="M0 324.5C-62.6 319.4 -125.3 314.3 -162.2 281C-199.2 247.7 -210.5 186.2 -233.2 134.7C-256 83.1 -290.3 41.6 -324.5 0L0 0Z" fill="#ffae55"></path><path d="M0 162.2C-31.3 159.7 -62.6 157.2 -81.1 140.5C-99.6 123.9 -105.2 93.1 -116.6 67.3C-128 41.6 -145.1 20.8 -162.2 0L0 0Z" fill="#ff9300"></path></g><g transform="translate(0, 600)"><path d="M0 -486.7C87.6 -475.5 175.2 -464.2 243.4 -421.5C311.5 -378.9 360.2 -305 397.5 -229.5C434.8 -154 460.8 -77 486.7 0L0 0Z" fill="#ffe4c6"></path><path d="M0 -324.5C58.4 -317 116.8 -309.4 162.2 -281C207.7 -252.6 240.1 -203.3 265 -153C289.9 -102.7 307.2 -51.3 324.5 0L0 0Z" fill="#ffae55"></path><path d="M0 -162.2C29.2 -158.5 58.4 -154.7 81.1 -140.5C103.8 -126.3 120.1 -101.7 132.5 -76.5C144.9 -51.3 153.6 -25.7 162.2 0L0 0Z" fill="#ff9300"></path></g></svg>