<svg xmlns="http://www.w3.org/2000/svg" viewBox="0 0 500 500"><g id="freepik--Floor--inject-61"><path id="freepik--floor--inject-61" d="M77.66,244.16c-95.18,55-95.17,144,0,199s249.49,54.95,344.67,0,95.17-144,0-199S172.84,189.21,77.66,244.16Z" style="fill:#fafafa"></path></g><g id="freepik--Pictures--inject-61"><g id="freepik--Picture--inject-61"><g id="freepik--Frame--inject-61"><polygon points="351.33 143.39 349.86 144.31 322.15 125.41 323.62 124.49 351.33 143.39" style="fill:#fafafa"></polygon><polygon points="323.62 124.49 349.98 142.46 352.07 110.37 325.71 92.41 323.62 124.49" style="fill:#fff"></polygon><path d="M319.37,127.09l32.81,22.38,2.67-40.78L322,86.31Zm5-35.62,27.71,18.9-2.21,33.94-27.71-18.9Z" style="fill:#f0f0f0"></path><polygon points="322.15 125.41 323.62 124.49 325.71 92.41 324.36 91.47 322.15 125.41" style="fill:#e0e0e0"></polygon><polygon points="322.04 86.31 323.53 85.41 356.34 107.79 354.85 108.69 322.04 86.31" style="fill:#fafafa"></polygon><polygon points="356.34 107.79 354.85 108.69 352.18 149.47 353.68 148.57 356.34 107.79" style="fill:#e0e0e0"></polygon></g><g id="freepik--Land--inject-61"><polygon points="324.75 123.54 349.06 140.11 349.59 131.96 344.31 115.58 340.09 119.62 341.07 126.47 333.67 105.51 325.29 115.38 324.75 123.54" style="fill:#f0f0f0"></polygon><path d="M341.11,107.66a4.45,4.45,0,0,1,1.64,3.64c-.08,1.34-1,1.87-1.95,1.19a4.48,4.48,0,0,1-1.64-3.64C339.25,107.52,340.12,107,341.11,107.66Z" style="fill:#f0f0f0"></path></g></g><g id="freepik--picture--inject-61"><g id="freepik--frame--inject-61"><polygon points="353.86 85.78 352.37 86.67 321.83 69.04 323.32 68.15 353.86 85.78" style="fill:#fafafa"></polygon><polygon points="323.32 68.15 352.37 84.92 352.37 54.5 323.32 37.74 323.32 68.15" style="fill:#fff"></polygon><path d="M319,70.66l36.16,20.87V52.88L319,32Zm2.81-33.79L352.37,54.5V86.67L321.83,69Z" style="fill:#f0f0f0"></path><polygon points="321.83 69.04 323.32 68.15 323.32 37.74 321.83 36.87 321.83 69.04" style="fill:#e0e0e0"></polygon><polygon points="319.02 32.01 320.53 31.14 356.69 52.01 355.18 52.88 319.02 32.01" style="fill:#fafafa"></polygon><polygon points="356.69 52.01 355.18 52.88 355.18 91.53 356.69 90.67 356.69 52.01" style="fill:#e0e0e0"></polygon></g><g id="freepik--land--inject-61"><polygon points="324.45 67.24 351.23 82.7 351.23 74.97 344.54 59.51 340.37 63.38 341.87 69.86 332.62 50.08 324.45 59.51 324.45 67.24" style="fill:#f0f0f0"></polygon><path d="M340.62,52.05a4.37,4.37,0,0,1,2,3.43c0,1.26-.89,1.77-2,1.14a4.39,4.39,0,0,1-2-3.43C338.64,51.93,339.53,51.41,340.62,52.05Z" style="fill:#f0f0f0"></path></g></g></g><g id="freepik--Window--inject-61"><g id="freepik--window--inject-61"><g id="freepik--window--inject-61"><g id="freepik--frame--inject-61"><polygon points="458.21 205.64 455.94 207 378.68 162.39 380.95 161.03 458.21 205.64" style="fill:#fafafa"></polygon><polygon points="380.95 161.03 455.94 204.32 455.94 78.86 380.95 35.59 380.95 161.03" style="fill:#fff"></polygon><path d="M374.39,164.86l85.84,49.56v-138L374.39,26.83Zm4.29-130.61,77.26,44.61V207l-77.26-44.6Z" style="fill:#f0f0f0"></path><polygon points="378.68 162.39 380.95 161.03 380.95 35.59 378.68 34.25 378.68 162.39" style="fill:#e0e0e0"></polygon><polygon points="455.94 167.79 455.94 170.45 378.68 125.84 380.95 124.49 455.94 167.79" style="fill:#fafafa"></polygon><polygon points="455.94 107.8 455.94 110.47 378.68 65.86 380.95 64.51 455.94 107.8" style="fill:#fafafa"></polygon><polygon points="374.39 26.83 376.7 25.51 462.53 75.07 460.23 76.39 374.39 26.83" style="fill:#fafafa"></polygon><polygon points="462.53 75.07 460.23 76.39 460.23 214.42 462.53 213.1 462.53 75.07" style="fill:#e0e0e0"></polygon><polygon points="422.89 59.78 420.59 58.45 420.59 186.59 422.89 185.27 422.89 59.78" style="fill:#e0e0e0"></polygon></g><polygon points="416.3 55.99 420.59 58.45 420.59 186.59 416.3 184.11 416.3 55.99" style="fill:#f0f0f0"></polygon><polygon points="374.39 63.39 374.39 68.33 460.23 117.89 460.23 112.95 374.39 63.39" style="fill:#f0f0f0"></polygon><polygon points="374.39 123.36 374.39 128.3 460.23 177.86 460.23 172.92 374.39 123.36" style="fill:#f0f0f0"></polygon><polygon points="420.59 90.06 422.89 88.72 455.94 107.8 455.94 110.47 420.59 90.06" style="fill:#fafafa"></polygon><polygon points="420.59 150.01 422.89 148.68 455.94 167.76 455.94 170.43 420.59 150.01" style="fill:#fafafa"></polygon></g></g></g><g id="freepik--Shadows--inject-61"><ellipse id="freepik--Shadow--inject-61" cx="449.98" cy="303.63" rx="27.22" ry="15.72" style="fill:#e0e0e0"></ellipse><polygon id="freepik--shadow--inject-61" points="361.63 282.97 285.52 326.91 341.25 359.08 350.01 354.02 381.4 372.14 439.98 338.32 408.6 320.2 417.36 315.14 361.63 282.97" style="fill:#e0e0e0"></polygon><ellipse id="freepik--shadow--inject-61" cx="97.61" cy="398.15" rx="72.54" ry="41.88" style="fill:#e0e0e0"></ellipse><ellipse id="freepik--shadow--inject-61" cx="386.86" cy="432.02" rx="45.75" ry="26.41" style="fill:#e0e0e0"></ellipse><path id="freepik--shadow--inject-61" d="M303.63,430.51c7.62,4.4,7.62,11.55,0,15.95s-20,4.4-27.63,0-7.63-11.55,0-15.95S296,426.11,303.63,430.51Z" style="fill:#e0e0e0"></path><path id="freepik--shadow--inject-61" d="M216,421,128,370.14c-1.58-.91-1.58-2.38,0-3.3l107.48-62a6.31,6.31,0,0,1,5.71,0l88,50.84c1.58.91,1.58,2.39,0,3.3L221.73,421A6.31,6.31,0,0,1,216,421Z" style="fill:#e0e0e0"></path></g><g id="freepik--Furniture--inject-61"><g id="freepik--Drawer--inject-61"><g id="freepik--drawer--inject-61"><g id="freepik--Cabinet--inject-61"><polygon points="341.18 353.85 294.74 327.04 294.74 232.47 341.18 259.28 341.18 353.85" style="fill:#263238"></polygon><polygon points="341.18 259.28 407.52 220.98 407.52 315.55 341.18 353.85 341.18 259.28" style="fill:#37474f"></polygon><polygon points="407.52 220.98 341.18 259.28 294.74 232.47 361.08 194.17 407.52 220.98" style="fill:#455a64"></polygon><polygon points="347.81 298.08 400.88 267.44 400.88 310.45 347.81 341.09 347.81 298.08" style="fill:#263238"></polygon><polygon points="400.88 310.45 363.63 288.95 347.81 298.08 347.81 341.09 400.88 310.45"></polygon><path d="M369.84,293l9-5.21c1.17-.68,2.12-.37,2.12.69a4.25,4.25,0,0,1-2.12,3.14l-9,5.21c-1.17.67-2.12.37-2.12-.69A4.22,4.22,0,0,1,369.84,293Z" style="fill:#263238"></path><polygon points="347.81 264.53 400.88 233.89 400.88 259.78 347.81 290.42 347.81 264.53" style="fill:#263238"></polygon></g><g id="freepik--drawer--inject-61"><polygon points="427.19 254.22 397.75 237.23 397.74 258.74 427.19 275.73 427.19 254.22" style="fill:#37474f"></polygon><g style="opacity:0.1"><polygon points="427.19 254.22 397.75 237.23 397.74 258.74 427.19 275.73 427.19 254.22"></polygon></g><path d="M348.8,287l48.94-28.26,29.45,17s-48.94,28.6-48.94,28.26S348.8,287,348.8,287Z" style="fill:#263238"></path><path d="M365.87,265.81v3.53a1.56,1.56,0,0,0,.78,1.35L392,285.3a1.49,1.49,0,0,0,1.49.17L420.33,270a1.3,1.3,0,0,0,.54-1.2,4.37,4.37,0,0,0-2-3.39l-26.1-15.07Z" style="fill:#73D78F"></path><g style="opacity:0.30000000000000004"><path d="M365.87,265.81v3.53a1.56,1.56,0,0,0,.78,1.35L392,285.3a1.49,1.49,0,0,0,1.49.17L420.33,270a1.3,1.3,0,0,0,.54-1.2,4.37,4.37,0,0,0-2-3.39l-26.1-15.07Z"></path></g><path d="M392,280.87l-26.1-15.06v3.53a1.56,1.56,0,0,0,.78,1.35L392,285.3c1.13.66,2,.19,2-1A4.4,4.4,0,0,0,392,280.87Z" style="opacity:0.2"></path><path d="M390.77,281.66a1.48,1.48,0,0,1,.69,1.13c0,.41-.31.57-.69.35l-24.9-14.38v-1.47Z" style="opacity:0.2"></path><path d="M420.87,261v3.53a1.57,1.57,0,0,1-.77,1.35L394.78,280.5a1.48,1.48,0,0,1-1.49.16l-26.87-15.51a1.3,1.3,0,0,1-.55-1.19,4.41,4.41,0,0,1,2.05-3.4L394,245.5Z" style="fill:#73D78F"></path><g style="opacity:0.5"><path d="M420.87,261v3.53a1.57,1.57,0,0,1-.77,1.35L394.78,280.5a1.48,1.48,0,0,1-1.49.16l-26.87-15.51a1.3,1.3,0,0,1-.55-1.19,4.41,4.41,0,0,1,2.05-3.4L394,245.5Z" style="fill:#fff"></path></g><path d="M394.78,276.07,420.87,261v3.53a1.57,1.57,0,0,1-.77,1.35L394.78,280.5c-1.13.65-2,.19-2-1A4.38,4.38,0,0,1,394.78,276.07Z" style="opacity:0.2"></path><path d="M396,276.86a1.47,1.47,0,0,0-.68,1.13c0,.41.31.56.68.35L420.87,264v-1.48Z" style="opacity:0.2"></path><path d="M365.87,255.9v3.53a1.56,1.56,0,0,0,.78,1.35L392,275.4a1.5,1.5,0,0,0,1.49.16l26.87-15.51a1.3,1.3,0,0,0,.54-1.2,4.37,4.37,0,0,0-2-3.39l-26.1-15.07Z" style="fill:#73D78F"></path><path d="M392,271l-26.1-15.06v3.53a1.56,1.56,0,0,0,.78,1.35L392,275.4c1.13.65,2,.18,2-1A4.4,4.4,0,0,0,392,271Z" style="fill:#73D78F"></path><path d="M392,271l-26.1-15.06v3.53a1.56,1.56,0,0,0,.78,1.35L392,275.4c1.13.65,2,.18,2-1A4.4,4.4,0,0,0,392,271Z" style="opacity:0.2"></path><path d="M390.77,271.75a1.48,1.48,0,0,1,.69,1.13c0,.41-.31.57-.69.35l-24.9-14.38v-1.47Z" style="opacity:0.2"></path><polygon points="399.8 236.04 397.74 237.23 427.19 254.22 429.25 253.03 399.8 236.04" style="fill:#455a64"></polygon><polygon points="378.25 282.48 348.8 265.49 348.8 287 378.25 303.99 378.25 282.48" style="fill:#37474f"></polygon><polygon points="350.86 264.3 348.8 265.48 378.25 282.48 380.31 281.29 350.86 264.3" style="fill:#455a64"></polygon><polygon points="377.66 280.66 430.73 250.02 430.73 275.92 377.66 306.56 377.66 280.66" style="fill:#455a64"></polygon><path d="M398.46,274.9l9-5.21c1.18-.67,2.13-.37,2.13.69a4.22,4.22,0,0,1-2.13,3.14l-9,5.21c-1.17.68-2.12.37-2.12-.69A4.25,4.25,0,0,1,398.46,274.9Z" style="fill:#263238"></path><polygon points="377.66 280.66 375.89 279.64 375.89 305.54 377.66 306.56 377.66 280.66" style="fill:#263238"></polygon><polygon points="375.89 279.64 428.96 249 430.73 250.02 377.66 280.66 375.89 279.64" style="fill:#37474f"></polygon></g></g><g id="freepik--picture--inject-61"><g id="freepik--frame--inject-61"><polygon points="310.94 231.28 312.12 231.85 334.03 219.2 332.85 218.63 310.94 231.28" style="fill:#73D78F"></polygon><polygon points="310.94 231.28 312.12 231.85 334.03 219.2 332.85 218.63 310.94 231.28" style="opacity:0.2"></polygon><polygon points="332.85 218.63 312 230.66 308.97 199.49 329.82 187.47 332.85 218.63" style="fill:#73D78F"></polygon><g style="opacity:0.8"><polygon points="332.85 218.63 312 230.66 308.97 199.49 329.82 187.47 332.85 218.63" style="fill:#fff"></polygon></g><path d="M332.68,183.47l-25.94,15,3.58,36.77,25.94-15ZM334,219.2l-21.91,12.65L309,199.49l21.91-12.65Z" style="fill:#73D78F"></path><path d="M332.68,183.47l-25.94,15,3.58,36.77,25.94-15ZM334,219.2l-21.91,12.65L309,199.49l21.91-12.65Z" style="fill:#73D78F"></path><polygon points="334.03 219.2 332.85 218.63 329.82 187.47 330.88 186.84 334.03 219.2" style="fill:#73D78F"></polygon><polygon points="334.03 219.2 332.85 218.63 329.82 187.47 330.88 186.84 334.03 219.2" style="opacity:0.35000000000000003"></polygon><polygon points="332.68 183.47 331.48 182.92 305.55 197.89 306.75 198.45 332.68 183.47" style="fill:#73D78F"></polygon><polygon points="332.68 183.47 331.48 182.92 305.55 197.89 306.75 198.45 332.68 183.47" style="fill:#fff;opacity:0.6000000000000001"></polygon><polygon points="305.55 197.89 306.75 198.45 310.32 235.22 309.12 234.66 305.55 197.89" style="fill:#73D78F"></polygon><polygon points="305.55 197.89 306.75 198.45 310.32 235.22 309.12 234.66 305.55 197.89" style="opacity:0.35000000000000003"></polygon></g><g id="freepik--land--inject-61"><polygon points="331.93 218.04 312.72 229.13 312.2 223.88 315.78 208.45 319.19 213.72 318.48 218.15 324.16 201.78 331.42 212.79 331.93 218.04" style="fill:#73D78F"></polygon><path d="M315.48,202a2.71,2.71,0,0,0-1.27,2.37c.09.86.79,1.19,1.58.73a2.71,2.71,0,0,0,1.27-2.37C317,201.83,316.27,201.5,315.48,202Z" style="fill:#73D78F"></path></g></g><g id="freepik--Pizza--inject-61"><path id="freepik--shadow--inject-61" d="M346.84,212.3c-9.79,5.65-9.79,14.81,0,20.46s25.65,5.65,35.43,0,9.79-14.81,0-20.46S356.62,206.65,346.84,212.3Z" style="fill:#37474f"></path><g id="freepik--Plate--inject-61"><path d="M381.76,211.13c-9.6-5.54-25.16-5.54-34.76,0h0v-1c-5,2.9-7.41,6.74-7.18,10.54-.23,3.79,2.16,7.63,7.18,10.53,9.6,5.54,25.16,5.54,34.76,0S391.36,216.67,381.76,211.13Z" style="fill:#73D78F"></path><path d="M381.76,210.13c9.6,5.55,9.6,14.53,0,20.07s-25.16,5.54-34.76,0-9.6-14.52,0-20.07S372.16,204.59,381.76,210.13Z" style="fill:#73D78F"></path><path d="M381.76,210.13c9.6,5.55,9.6,14.53,0,20.07s-25.16,5.54-34.76,0-9.6-14.52,0-20.07S372.16,204.59,381.76,210.13Z" style="fill:#fff;opacity:0.8"></path><path d="M352.6,212.06c-6.6,3.81-6.6,10,0,13.8s17.29,3.8,23.88,0,6.6-10,0-13.8S359.19,208.26,352.6,212.06Z" style="fill:#73D78F"></path><path d="M352.6,212.06c-6.6,3.81-6.6,10,0,13.8s17.29,3.8,23.88,0,6.6-10,0-13.8S359.19,208.26,352.6,212.06Z" style="fill:#73D78F"></path><path d="M353.41,212.53c-6.15,3.55-6.15,9.31,0,12.86s16.11,3.54,22.26,0,6.15-9.31,0-12.86S359.56,209,353.41,212.53Z" style="fill:#73D78F"></path><path d="M353.41,212.53c-6.15,3.55-6.15,9.31,0,12.86s16.11,3.54,22.26,0,6.15-9.31,0-12.86S359.56,209,353.41,212.53Z" style="fill:#fff;opacity:0.6000000000000001"></path></g><path d="M388.78,221.82a15.9,15.9,0,0,0-2-2.76,16.72,16.72,0,0,0-3.5-3.17,22.28,22.28,0,0,0-5.58-2.28,20.61,20.61,0,0,0-6.73-1.26c-2.78.1-5.38,1.31-7.9,2.5l-12.66,6-6.28,3a10.93,10.93,0,0,0-2.79,1.35,13,13,0,0,0,1.78,2.17l.15,0c9.23,1.9,18.71,2.3,28.14,2.38,3.73,0,7.45,0,11.18,0C386.16,227.42,388.21,224.66,388.78,221.82Z" style="opacity:0.15"></path><path d="M340.6,223.53h0a2.31,2.31,0,0,0,2,2.15c1.52.16,3.91.36,7.06.42,5.76.11,30.85,1.05,32.05.27,1.9-1.24-.4-4.13-.4-4.13l-39.12.69Z" style="fill:#ffbda7"></path><path d="M371.66,205.49a4.39,4.39,0,0,1,3.89-.14,7.27,7.27,0,0,1,2.45,1.83c1,1.12,2.25,1,5.1,3.07a7.09,7.09,0,0,1,3.24,4.26c.45.92.16,2.12.49,3.1s1.26,1.76,1.72,2.72a4.4,4.4,0,0,1,.41,2.95,2.7,2.7,0,0,1-2,2,7.79,7.79,0,0,0-1,.12,5.41,5.41,0,0,0-1.13.56c-.84.44-2.08,1-2.9.49-1-.56-1.18-1.46-1.18-2.91-.41-1.14-1.63-2.28-2.34-3.26l-4.14-5.76c-.32-.46-5.2-7.39-5.27-7.35Z" style="fill:#f0997a"></path><path d="M376,216.93l.63.88,1.5,2.08c.15.21.3.42.45.61a.43.43,0,0,0,0,.07,3.9,3.9,0,0,0,.57.58,2.15,2.15,0,0,1,.71,1,5.29,5.29,0,0,1,.85,1.42c0,1.45.19,2.35,1.18,2.91.82.47,2.06-.05,2.9-.49a5.41,5.41,0,0,1,1.13-.56,7.79,7.79,0,0,1,1-.12,2.7,2.7,0,0,0,2-2,4.4,4.4,0,0,0-.41-2.95,7.51,7.51,0,0,0-.88-1.31,1.87,1.87,0,0,1-.45,2.12c-.75.48-3.15.22-4.12-.3s-.6-2.12-.9-2.85-1.73-1.3-1.47-2.86-.71-2.76-3-3.53-2.6-1.7-3.52-2.74-3.43-1.34-5.25-1.68c.07,0,4.94,6.88,5.27,7.35Z" style="opacity:0.1"></path><path d="M369,207.18a31.07,31.07,0,0,1,6.48,4.89l.08.09.26.26h0c3.14,3.3,4.92,7.09,4.92,11.12H340.6l2.85-1.65,1.05-.6.13-.08Z" style="fill:#ffbda7"></path><path d="M369,207.18a31.07,31.07,0,0,1,6.48,4.89l.08.09.26.26h0c3.14,3.3,4.92,7.09,4.92,11.12H340.6l2.85-1.65,1.05-.6.13-.08Z" style="fill:#fff;opacity:0.30000000000000004"></path><path d="M355.22,217.35a3,3,0,0,1,1.2,1.18c.46.92.06,2-1.2,2.69a7.44,7.44,0,0,1-6.72,0,2.28,2.28,0,0,1-1.38-2,2.39,2.39,0,0,1,1.38-1.84A7.44,7.44,0,0,1,355.22,217.35Z" style="fill:#b16668"></path><path d="M366.67,216.92a7.57,7.57,0,0,1,2.3.32c1.48.45,2.49,1.34,2.52,2.37,0,1.51-2.06,2.76-4.68,2.78a6.8,6.8,0,0,1-3.49-.84,2.36,2.36,0,0,1-1.33-1.86C362,218.18,364.05,216.94,366.67,216.92Z" style="fill:#b16668"></path><path d="M371.11,209.21a7.63,7.63,0,0,1,2.31.32c1.47.45,2.49,1.34,2.51,2.38,0,1.51-2.05,2.75-4.67,2.77a6.81,6.81,0,0,1-3.5-.84,2.35,2.35,0,0,1-1.32-1.85C366.4,210.47,368.49,209.23,371.11,209.21Z" style="fill:#b16668"></path></g><g id="freepik--Chips--inject-61"><path d="M348.76,238.57c-1.46-.58-3.25.4-5.17.19,2.65-2.43,1.5-6.06-1.19-6.07-2,0-3.58,2.6-6.46,2.21s-4.91,1.66-3.58,3.53a6.84,6.84,0,0,0,5.17,2.38c.91,2.13,3.87,4.65,8.38,4.23C350.84,244.58,351.62,239.72,348.76,238.57Z" style="fill:#37474f"></path><path d="M342.4,231.77c-2,0-3.58,2.61-6.46,2.21s-4.91,1.67-3.58,3.53,5.36,3.58,9.78,1.33S345.49,231.78,342.4,231.77Z" style="fill:#ffbda7"></path><path d="M343.52,237.91a4.28,4.28,0,0,1-2-.55c-2.53-1.43-5.17-.26-4.62,2a4.27,4.27,0,0,0,.18.54,9.2,9.2,0,0,0,5.09-1A6.65,6.65,0,0,0,343.52,237.91Z" style="fill:#f0997a"></path><path d="M342.14,238.84a5,5,0,0,0,2.91-3.62c-1.41,3.33-6,4.59-8.64,4.07s-4.05-1.77-4.4-3.44a1.93,1.93,0,0,0,.35,1.66C333.69,239.38,337.72,241.09,342.14,238.84Z" style="fill:#f0997a"></path><path d="M348.76,237.66c-1.88-.75-4.29,1.1-6.83-.33s-5.17-.26-4.62,2,3.66,5.3,8.6,4.84S351.62,238.81,348.76,237.66Z" style="fill:#ffbda7"></path><path d="M350.34,240.81c-.32,1.54-1.77,3.07-4.44,3.32-4.93.46-8-2.62-8.59-4.84a2,2,0,0,1,.09-1.35,2.39,2.39,0,0,0,.05.83c.55,2.21,3.67,5.3,8.61,4.83A4.74,4.74,0,0,0,350.34,240.81Z" style="fill:#f0997a"></path></g></g></g><g id="freepik--Dog--inject-61"><g id="freepik--dog--inject-61"><g id="freepik--Bark--inject-61"><polygon points="409.97 203.67 404.72 198.68 399.67 199.54 393.41 192.2 389.61 198.78 398.94 204.21 404.56 201.71 409.97 203.67" style="fill:#e0e0e0"></polygon><polygon points="409.83 201.2 404.81 195.81 399.36 195.66 395.36 187.92 400.37 186.25 402.32 192.55 405.54 192.99 409.83 201.2" style="fill:#e0e0e0"></polygon><polygon points="407.77 204.37 404.39 203.99 398.03 206.92 399.47 209.46 404.36 205.31 407.77 204.37" style="fill:#e0e0e0"></polygon></g><g id="freepik--dog--inject-61"><path d="M421.51,193.57a1.2,1.2,0,0,1,1.1-1.32,1.26,1.26,0,0,1,1.39,1.07,1.18,1.18,0,0,1-1.09,1.32A1.27,1.27,0,0,1,421.51,193.57Z" style="fill:#fff"></path><path d="M421.29,193.66a1.2,1.2,0,0,1,1.1-1.32,1.26,1.26,0,0,1,1.39,1.06,1.19,1.19,0,0,1-1.09,1.33A1.27,1.27,0,0,1,421.29,193.66Z"></path><path d="M422.31,193.46a.37.37,0,0,0-.36-.38.38.38,0,0,0-.39.35.38.38,0,0,0,.37.38A.37.37,0,0,0,422.31,193.46Z" style="fill:#fafafa"></path><path d="M436.71,191c.62-2.67-.95-5.4-4.37-7-3.77-1.77-10.27-3-14.22-.19-2.66,1.92-5.49,8.39-1.08,7.7s9.19-3.39,12.31-2.63c2.89.71,3,2.88,3,2.88Z" style="fill:#263238"></path><path d="M413.91,202.52c.19.29.58.82.47,1.27s.33.6.92.47S415.56,203,413.91,202.52Z" style="fill:#263238"></path><path d="M414.38,203.79a11,11,0,0,1,2.11-.28l5.21,1.37a5.09,5.09,0,0,1-4.59,1.72c-3.16-.29-3.56-1.47-3.59-1.85S414,203.75,414.38,203.79Z" style="fill:#f28f8f"></path><path d="M434,231.75s-4.27,5.87-9,6-10-.22-12.16.67-2.57,4.45-4.4,4.88a3.2,3.2,0,0,1-4-2.32c-.72-2.05.53-6,3.31-7.77s8.54-2.8,12.71-4.21,5.5-4.65,6.15-7.64C427.24,216.57,437.19,226.66,434,231.75Z" style="fill:#263238"></path><path d="M464.31,258.59c1.34,2.31,7.15,3.27,11.24.9s6.55-8.43,5.54-13.21-3.57-6.55-2.65-7.24,4.29,2.48,5.32,7.44,0,12.65-7.74,16.35c-6.79,3.24-9.62,1.5-11.71,6.19Z" style="fill:#37474f"></path><path d="M438.6,190.12a14,14,0,0,0-5.75-1.68c-3.82-.3-6.43,1.43-9.18,3.84a11.32,11.32,0,0,1-5.19,2.64,27.49,27.49,0,0,0-5,1.14,3,3,0,0,0-.81.87,4,4,0,0,0-.51,1.92,7,7,0,0,0,.22,2.18,1.55,1.55,0,0,0,.47.76.87.87,0,0,0,.83.18,5.34,5.34,0,0,0,2.92,2.64,8.53,8.53,0,0,0,5,.36,5.4,5.4,0,0,1-4,1.32,6.26,6.26,0,0,1-2.92-.7,1.46,1.46,0,0,1-.77-.83.83.83,0,0,1,.51-1,1.39,1.39,0,0,0-1.14.09.89.89,0,0,0-.44.74,2.28,2.28,0,0,0,.15.85,6.15,6.15,0,0,0,2.35,3.47,10.1,10.1,0,0,0,4.56,1,27,27,0,0,1,4.56,1.22,5.23,5.23,0,0,1,1.37.75,3.47,3.47,0,0,1,1.07,1.54,6.47,6.47,0,0,1,.15,2,18.09,18.09,0,0,1-.36,4.86c0,.21-.09.42-.14.63-1.16,5-4.58,11.36-.68,19.4s8.84,8.23,9.2,17.19-1.31,9.43-.88,14.48,6.37,9.09,7.61,10.6.81,2.59,1.21,6.77a26,26,0,0,1,0,6.39s-6.07,2-4.88,4,6.69,1.1,8.61.55,4.32-17,4.32-17a8.67,8.67,0,0,0,2.54,4.37,14,14,0,0,0,2.35,1.71c.78.45,1.83,1.06,2,4.41a50.76,50.76,0,0,1,0,7.19s-5.43,1.64-4.68,3.94,7.81,1.27,9.12.08,4.54-17.89,3.57-20.52-2.67-2.92-2.44-6.11c.2-2.76,1.27-5.39,1.95-8.05a23,23,0,0,0-1.71-16.63c-1.7-3.09-4.25-5.66-5.87-8.8-2.06-4-2.45-8.66-3.65-13a35.4,35.4,0,0,0-3-7.43c-1.26-2.34-3.22-4.24-4.47-6.52-2.17-3.91-3.24-10.4-2.81-14.81a23.32,23.32,0,0,0,.35-5.58,9.41,9.41,0,0,0-2.93-5.35A13.67,13.67,0,0,0,438.6,190.12Z" style="fill:#455a64"></path><path d="M426.48,197.89a1.18,1.18,0,0,1,1.09-1.32,1.27,1.27,0,0,1,1.4,1.07,1.2,1.2,0,0,1-1.1,1.32A1.26,1.26,0,0,1,426.48,197.89Z" style="fill:#fff"></path><path d="M426.25,198a1.2,1.2,0,0,1,1.1-1.32,1.27,1.27,0,0,1,1.4,1.06,1.21,1.21,0,0,1-1.1,1.33A1.27,1.27,0,0,1,426.25,198Z"></path><path d="M427.28,197.78a.38.38,0,0,0-.37-.38.38.38,0,0,0-.39.35.37.37,0,0,0,.37.37A.36.36,0,0,0,427.28,197.78Z" style="fill:#fafafa"></path><path d="M450.18,272.68a8.37,8.37,0,0,0-1,3.78,18.85,18.85,0,0,1-6.64-2.26,8,8,0,0,1-4.25-6.15,7.67,7.67,0,0,0,2.75,6.25,41.06,41.06,0,0,0,3.76,2.48,9.69,9.69,0,0,1,4.63,6.94,1,1,0,0,0,0,.17c.34,2-.38,9.9-.38,9.9h0C450.19,289,451,283.3,451,283.3A17.06,17.06,0,0,1,450.18,272.68Z" style="opacity:0.25"></path><path d="M450.5,263.31c-1.65-3.94-7.29-10.91-9.13-14.82s-1.84-14.05-1.83-17.25-2-5.83-4.09-8.06-6.9-3.59-9.62.25h0c-1.38,4.6-3.28,10.14,0,16.91,3,6.22,6.66,7.74,8.32,12.27a40.49,40.49,0,0,1,3.2,7.94c.72,2.66.56,7,1.42,9.2,1.55,3.94,3.47,4.11,7.21,6.46s3.85,3,3.85,3a15.38,15.38,0,0,1,.35-6.52C451.14,268.9,452.15,267.26,450.5,263.31Z" style="fill:#e0e0e0"></path><path d="M438,245.2c-2.86.16-6.25.12-8.76.39a25.77,25.77,0,0,1-3.37-5.26,17.27,17.27,0,0,1-1.82-7.69,31.63,31.63,0,0,1,1.82-9.21c2.72-3.84,7.49-2.49,9.62-.25s4.1,4.86,4.1,8.06a87.93,87.93,0,0,0,.76,13.39A6.86,6.86,0,0,1,438,245.2Z" style="fill:#f5f5f5"></path><path d="M450.32,272.5a18.54,18.54,0,0,0-.36,7c-.09-.17-.75-1.31-4-3.33-3.74-2.35-5.67-2.53-7.22-6.46-.85-2.16-.7-6.54-1.42-9.2a40.27,40.27,0,0,0-3.2-7.93,16.92,16.92,0,0,0-3.63-5.48,55.25,55.25,0,0,1,6.31-.45,8.54,8.54,0,0,0,3.73-.75,12.9,12.9,0,0,0,.81,2.56c1.85,3.9,7.48,10.87,9.12,14.81S451.28,268.73,450.32,272.5Z" style="fill:#f5f5f5"></path><path d="M446.78,239s-4.08,6-8.82,6.26c-3,.15-6.22.16-8.71.38a11.28,11.28,0,0,0-3.42.69c-2.14,1-2.42,4.54-4.24,5a3.21,3.21,0,0,1-4.11-2.19c-.78-2,.33-6,3-7.87s8.45-3.08,12.57-4.62,5.34-4.84,5.9-7.85C439.54,224,449.83,233.75,446.78,239Z" style="fill:#37474f"></path><path d="M459.59,256.56a1.71,1.71,0,0,0-1,.26,1.83,1.83,0,0,0-.75,1.33,3.87,3.87,0,0,0,.22,1.54c.39,1.13,1.05,2.15,1.44,3.28a5.39,5.39,0,0,1,.34,1.63,2.3,2.3,0,0,0,.29,1.48,1.39,1.39,0,0,0,1.5.42,2.61,2.61,0,0,0,1.44-1.72c.87-2.42.53-5.7-1.63-7.4a3.9,3.9,0,0,0-1.35-.75A2.24,2.24,0,0,0,459.59,256.56Z" style="fill:#f5f5f5"></path><path d="M457.87,264.65a1.39,1.39,0,0,0,.18-.73,2.55,2.55,0,0,0-.84-1.95,1.17,1.17,0,0,0-1.77,0,1,1,0,0,0-.22.46,1.6,1.6,0,0,0,.55,1.33c.45.47,1.14,1.75,1.88,1.14A.88.88,0,0,0,457.87,264.65Z" style="fill:#f5f5f5"></path><path d="M446.76,239a14.62,14.62,0,0,1-3.23,4.83,12.62,12.62,0,0,1-3,2.13c-.09-.42-.17-.85-.25-1.31C443.79,243.16,446.49,239.35,446.76,239Z" style="opacity:0.25"></path><path d="M427,214.35c1,2.52,7.75,2.62,11,1.8,2.67-.67,5.51-1.81,6.45-5.15a5.31,5.31,0,0,1,.88,3.42c-.43,1.84-2.43,3.39-6,4.46-3.19,1-9.87,1-12.28-1.32C427,217.56,425.7,215.6,427,214.35Z" style="fill:#73D78F"></path><path d="M417,197.51a1.92,1.92,0,0,1,.26.85,1.62,1.62,0,0,1-.41,1.19,1.68,1.68,0,0,1-1.34.46h0a.08.08,0,0,1,0-.05.47.47,0,0,1,.1-.39c.06-.09.16-.16.2-.26a.24.24,0,0,0-.14-.29c-.42-.17-.51.4-.57.66a.46.46,0,0,1-.09.2.44.44,0,0,1-.18.09l-.92.26a.52.52,0,0,1-.25,0,.39.39,0,0,1-.19-.1,1.49,1.49,0,0,1-.69-1.34c0-.2.09-.4.11-.61a.23.23,0,0,0,0-.16.29.29,0,0,0-.36.05c0,.06-.12.43-.2.21a1.63,1.63,0,0,1,0-.66,1.77,1.77,0,0,1,1.54-1.67,2.85,2.85,0,0,1,1,.17,7.87,7.87,0,0,1,1.27.52,2.66,2.66,0,0,1,.71.47A1.57,1.57,0,0,1,417,197.51Z" style="fill:#263238"></path><path d="M412.81,201.79a.87.87,0,0,0,.83.18,5,5,0,0,1,0-1.91,4.73,4.73,0,0,0-.24,1.59c0,.16-.32.29-.72,0A1.83,1.83,0,0,0,412.81,201.79Z" style="fill:#37474f"></path><path d="M440.57,245.94c-.1-.42-.18-.86-.26-1.31a6.88,6.88,0,0,1-2.35.58c-2.87.15-6.25.12-8.75.38.45.55.89,1.06,1.31,1.55h0a52.92,52.92,0,0,1,6.31-.45A8.73,8.73,0,0,0,440.57,245.94Z" style="fill:#e0e0e0"></path><path d="M439.11,199.28a6.67,6.67,0,0,1,5.24-.85s-1.26-2.56-3.09-2.46S438.31,198.37,439.11,199.28Z"></path><path d="M438.18,198.75a3.5,3.5,0,0,1,.31-2.53c.91-1.49,4.22-2.66,5.92-2.56s8.64.65,11,8c1.73,5.47.89,8.45-2.7,10.51-5.05,2.91-4.73-3.61-5.94-7.25-2-6.07-3.78-7.75-5.25-7.9-2.47.79-2.38,2.25-2.38,2.25S438.58,199.52,438.18,198.75Z" style="fill:#263238"></path><path d="M421.53,205a5.4,5.4,0,0,1-4,1.32,6.26,6.26,0,0,1-2.92-.7,1.46,1.46,0,0,1-.77-.83.83.83,0,0,1,.51-1,1.39,1.39,0,0,0-1.14.09.89.89,0,0,0-.44.74,2.09,2.09,0,0,0,.12.74,5.19,5.19,0,0,0,3.54,1.55C420.25,207.37,421.53,205,421.53,205Z" style="opacity:0.25"></path></g></g></g><g id="freepik--Doll--inject-61"><g id="freepik--doll--inject-61"><rect x="294.04" y="429.42" width="2.82" height="10.31" transform="translate(782.94 238.36) rotate(102.29)" style="fill:#ffbda7"></rect><rect x="300.88" y="434.22" width="2.82" height="3.68" transform="translate(792.69 233.49) rotate(102.29)" style="fill:#37474f"></rect><path d="M301.91,435.11h0a2.26,2.26,0,0,0,1.74,2.69l.14,0,1-4.42-.14,0A2.26,2.26,0,0,0,301.91,435.11Z" style="fill:#455a64"></path><rect x="298.8" y="435.33" width="2.82" height="0.57" transform="translate(789.73 234.97) rotate(102.29)" style="fill:#fafafa"></rect><rect x="288.57" y="437.01" width="2.82" height="10.31" transform="translate(813.99 512.93) rotate(130.95)" style="fill:#ffbda7"></rect><rect x="293.85" y="444.91" width="2.82" height="3.68" transform="translate(826.2 516.53) rotate(130.95)" style="fill:#37474f"></rect><path d="M295.39,445.73h0a2.25,2.25,0,0,0,.23,3.19l.11.1,3-3.42-.11-.1A2.28,2.28,0,0,0,295.39,445.73Z" style="fill:#455a64"></path><rect x="292.25" y="445.07" width="2.82" height="0.57" transform="translate(822.49 515.44) rotate(130.95)" style="fill:#fafafa"></rect><path d="M278.7,430a21.51,21.51,0,0,0,0,4.93c.35,1.91,12.55,11.34,12.55,11.34l2.83-2.85-8.82-8.47,13.08,2.52.77-3.82-13.42-3.55Z" style="fill:#455a64"></path><path d="M288.48,415a2.23,2.23,0,1,0,2.22-2.22A2.23,2.23,0,0,0,288.48,415Z" style="fill:#f0997a"></path><path d="M276.25,415a2.23,2.23,0,1,1-2.22-2.22A2.22,2.22,0,0,1,276.25,415Z" style="fill:#f0997a"></path><path d="M297.51,425.11a1.7,1.7,0,0,1-.68-.05c.55-.19.7-.6.53-.74s-.46-.08-.79,0a1.38,1.38,0,0,1-.54.07s.17-.51.07-.71a.28.28,0,0,0-.52,0,1.52,1.52,0,0,1-.76.68.88.88,0,0,0-.46.4,18.13,18.13,0,0,1-8.45-1l-.64,1.53a16.38,16.38,0,0,0,4.44,1.08,23.82,23.82,0,0,0,4.83,0h0a4.59,4.59,0,0,1,1.18.17,4.37,4.37,0,0,0,1.4.11c.42-.08.37-.51.14-.57a1.1,1.1,0,0,1-.43-.21,1.31,1.31,0,0,0,.77-.18C297.92,425.53,297.84,425.08,297.51,425.11Z" style="fill:#ffbda7"></path><path d="M267.22,425.11a1.7,1.7,0,0,0,.68-.05c-.55-.19-.7-.6-.52-.74s.45-.08.78,0a1.38,1.38,0,0,0,.54.07s-.16-.51-.06-.71a.27.27,0,0,1,.51,0,1.52,1.52,0,0,0,.76.68.88.88,0,0,1,.46.4,18.13,18.13,0,0,0,8.45-1l.64,1.53a16.28,16.28,0,0,1-4.43,1.08,23.84,23.84,0,0,1-4.83,0h0a4.61,4.61,0,0,0-1.19.17,4.37,4.37,0,0,1-1.4.11c-.42-.08-.37-.51-.14-.57a1.21,1.21,0,0,0,.44-.21,1.34,1.34,0,0,1-.78-.18C266.81,425.53,266.89,425.08,267.22,425.11Z" style="fill:#ffbda7"></path><path d="M281,423h2.27l3.38.93-1,6.17a9.47,9.47,0,0,1-7-.1L278,423.8Z" style="fill:#73D78F"></path><path d="M281,423h2.27l3.38.93-1,6.17a9.47,9.47,0,0,1-7-.1L278,423.8Z" style="opacity:0.30000000000000004"></path><path d="M283.63,421.65l-.05,1.94c-.19.92-2.26.85-2.48,0v-1.91Z" style="fill:#f0997a"></path><ellipse cx="282.37" cy="412.79" rx="8.9" ry="9.35" style="fill:#ffbda7"></ellipse><path d="M286,413.4a1.16,1.16,0,1,0,1.15-1.15A1.15,1.15,0,0,0,286,413.4Z" style="fill:#37474f"></path><path d="M287.18,415.39a1.5,1.5,0,1,0,1.47-1.22A1.37,1.37,0,0,0,287.18,415.39Z" style="fill:#f28f8f"></path><circle cx="277.55" cy="413.4" r="1.16" style="fill:#37474f"></circle><path d="M277.55,415.39a1.49,1.49,0,0,1-2.93,0,1.49,1.49,0,0,1,2.93,0Z" style="fill:#f28f8f"></path><path d="M282.37,419.05a3.29,3.29,0,0,1-3.15-2,.36.36,0,1,1,.7-.17,2.84,2.84,0,0,0,4.89,0,.36.36,0,1,1,.7.17A3.29,3.29,0,0,1,282.37,419.05Z" style="fill:#37474f"></path><path d="M285.46,406.39c-1.83,4.41-8.4,4-12,6.47-.89-5.92,2.7-10.84,9.12-10.84s10.36,5.9,8.67,10.77A7.81,7.81,0,0,1,285.46,406.39Z" style="fill:#37474f"></path></g></g><g id="freepik--character-3--inject-61"><g id="freepik--Kid--inject-61"><g id="freepik--Bottom--inject-61"><path d="M430.52,423.16c-1.7-.82-19-.36-20.75,1.06-2.1,1.71-23,9.36-23,9.36l-16.06,14.58c6.75,1.72,18.44.13,27.64-4.68,5.44-2.85,10-6.59,14.8-10a29.69,29.69,0,0,1,5.72-3.5c3.51-1.19,8.89-3.3,13.11-5.25C431.93,424.76,432.23,424,430.52,423.16Z" style="fill:#ffa8a7"></path><path d="M436.14,422c.82-1.1-2.44-4.92-7.06-5.44-3.63-.41-5.29.25-7.86.61s-6.33-1.31-8.48-1.66c-4.46-.72-5.19,2-4.86,3.5s.79,3.12,3.83,4.21S429.31,424.05,436.14,422Z" style="fill:#37474f"></path><path d="M406.75,426c1.53,2.63,5.09,1.85,8.09,1.28,2.82-.53,13.1-3.28,14.46-1.27a20.68,20.68,0,0,0,6.84-4s-.74-2.84-6.55-1.44a54,54,0,0,1-12.92,1.12c-2.81-.35-6.64-2.9-9.57-1.72C405.84,421.7,406.36,423.4,406.75,426Z" style="fill:#73D78F"></path><path d="M406.75,426c1.53,2.63,5.09,1.85,8.09,1.28,2.82-.53,13.1-3.28,14.46-1.27a20.68,20.68,0,0,0,6.84-4s-.74-2.84-6.55-1.44a54,54,0,0,1-12.92,1.12c-2.81-.35-6.64-2.9-9.57-1.72C405.84,421.7,406.36,423.4,406.75,426Z" style="fill:#fff;opacity:0.6000000000000001"></path><path d="M347.49,426.36c.71-4.75,5.26-10.84,9.69-15.1,5.92-5.69,18.31-15,18.31-15l.23,1.11h0l34.06-7c2.21,4.51,4.81,13.8,4.82,20.36,0,6.12-.93,13.49-11.64,21.44-6.5,4.82-9.18,8.27-14.07,10.83-5.29,2.77-12.49,7.33-20.08,4.55-4.36-1.6-7.24-4.28-7.28-9.17h0c-.86.52-6.18,1.47-9.78-.56C348.42,436,346.76,431.29,347.49,426.36Z" style="fill:#ffa8a7"></path><path d="M359.33,439a7.26,7.26,0,0,0,2.19-.55c1.32-8.25,9.74-14.35,21.68-24a24.77,24.77,0,0,1-2.23-5.76c.43,2-1.14,3.73-.51,5.17-2.67,2.39-9.92,6.9-14.18,11.8C363.43,428.91,359.74,433,359.33,439Z" style="fill:#f28f8f"></path><path d="M384.53,441.82c4.26.4,12.6-2.46,17.52-6.75,1.56-1.37,5.56-4.71,7.61-8.81.59-1.17-14.82,10.51-14.82,10.51S389.34,440.47,384.53,441.82Z" style="fill:#f28f8f"></path><path d="M413.78,395.37l-40.28,2.36s-13.27,9.2-20,17.47a23.9,23.9,0,0,1,12.11,3.24c4.93,3,6.45,5.24,6.45,5.24A19,19,0,0,1,385.48,425c8.8,4.37,9.36,11.73,9.36,11.73s13.24-7.95,16.47-12.3C416.93,416.9,415.55,401.65,413.78,395.37Z" style="fill:#455a64"></path><path d="M374.35,409s0,4.21,2.74,6.87l-6.85,5.93c.86.81,1.83,1.89,1.83,1.89a94,94,0,0,1,9.46-7.82S376.34,413.62,374.35,409Z" style="fill:#37474f"></path></g><g id="freepik--Top--inject-61"><path id="freepik--Arm--inject-61" d="M371.26,390.45c-2.5,4.07-3.92,6.18-9.14,8.52a82.63,82.63,0,0,1-25.73,6.37c-5.06.45-8.45.07-10.94-1.34-6-3.4-7.35-11.38-2.23-10.45,4.07.75,6.18,1,7.37.62,0,0-3.14-3.77-2.29-5.12s3.47.59,6,2.33c1.64,1.11,2.82,2.55,4,2.44,7-.95,18.36-6.35,18.36-6.35s7.67-17,11.31-22.4,10.32-5.66,10.32-5.66l1.3,14.83Z" style="fill:#ffa8a7"></path><g id="freepik--doll--inject-61"><polygon points="315.49 377.97 316.48 397.24 334.2 395.37 332.33 376.73 315.49 377.97" style="fill:#37474f"></polygon><rect x="324.11" y="403.15" width="2.6" height="9.5" transform="translate(-2.68 2.15) rotate(-0.38)" style="fill:#b16668"></rect><rect x="324.15" y="412.66" width="2.6" height="3.39" transform="translate(-2.72 2.15) rotate(-0.38)" style="fill:#37474f"></rect><path d="M324.66,413.84h0a2.09,2.09,0,0,1,2.1,2.07V416l-4.18,0v-.13A2.08,2.08,0,0,1,324.66,413.84Z" style="fill:#455a64"></path><rect x="324.14" y="412.13" width="2.6" height="0.52" transform="translate(-2.71 2.15) rotate(-0.38)" style="fill:#fafafa"></rect><rect x="328.64" y="402.57" width="2.6" height="9.5" transform="translate(735.47 739.46) rotate(168.33)" style="fill:#b16668"></rect><rect x="329.95" y="411.94" width="2.6" height="3.39" transform="translate(739.33 751.7) rotate(168.33)" style="fill:#37474f"></rect><path d="M331.91,413h0a2.09,2.09,0,0,0-1.62,2.47l0,.13,4.09-.84,0-.13A2.1,2.1,0,0,0,331.91,413Z" style="fill:#455a64"></path><rect x="329.55" y="411.46" width="2.6" height="0.52" transform="translate(738.16 747.98) rotate(168.33)" style="fill:#fafafa"></rect><path d="M327,402.18l.7,3.15c2.07.27,4.94-1,5.47-1.75l-3.76-8.65-6.4.82-1.71,9.18c.7.58,3.8,1.14,5.72.47l0-3.22" style="fill:#455a64"></path><path d="M318.92,382.27a2.05,2.05,0,1,1-2.28-1.81A2.06,2.06,0,0,1,318.92,382.27Z" style="fill:#9a4a4d"></path><path d="M330.11,381a2.05,2.05,0,1,0,1.81-2.27A2.05,2.05,0,0,0,330.11,381Z" style="fill:#9a4a4d"></path><path d="M311.7,392.46a1.48,1.48,0,0,0,.61-.12c-.52-.11-.7-.48-.55-.62s.41-.13.72-.07a1,1,0,0,0,.5,0s-.21-.45-.14-.64a.26.26,0,0,1,.47-.09,1.48,1.48,0,0,0,.77.54.86.86,0,0,1,.46.32,16.71,16.71,0,0,0,7.64-1.8l.75,1.34a15.19,15.19,0,0,1-3.95,1.45,22.08,22.08,0,0,1-4.43.55h0a4.32,4.32,0,0,0-1.06.27,3.86,3.86,0,0,1-1.27.26c-.4,0-.4-.44-.19-.52a1.07,1.07,0,0,0,.38-.23,1.31,1.31,0,0,1-.73-.08C311.37,392.89,311.39,392.46,311.7,392.46Z" style="fill:#b16668"></path><path d="M339.44,389.3a1.52,1.52,0,0,1-.63,0c.49-.23.58-.62.41-.73s-.43,0-.73.1a1.15,1.15,0,0,1-.48.12s.1-.49,0-.66a.26.26,0,0,0-.48,0,1.43,1.43,0,0,1-.62.7c-.18.11-.36.27-.38.42a16.76,16.76,0,0,1-7.85,0l-.43,1.48a15.32,15.32,0,0,0,4.18.52,22.43,22.43,0,0,0,4.43-.46h0a4,4,0,0,1,1.1,0,4.07,4.07,0,0,0,1.29,0c.38-.12.29-.51.07-.55a1.11,1.11,0,0,1-.42-.14,1.27,1.27,0,0,0,.69-.24C339.86,389.64,339.74,389.23,339.44,389.3Z" style="fill:#b16668"></path><path d="M326.57,388.76l-2.08.24-3,1.2,1.54,5.55a8.73,8.73,0,0,0,6.4-.82l0-5.71Z" style="fill:#73D78F"></path><path d="M324.05,387.84l.25,1.78c.27.81,2.16.53,2.26-.27l-.2-1.76Z" style="fill:#9a4a4d"></path><path d="M332.43,378.66a8.21,8.21,0,1,1-9.12-7.64A8.43,8.43,0,0,1,332.43,378.66Z" style="fill:#b16668"></path><path d="M321,380.54a1.07,1.07,0,0,1-.93,1.18,1.07,1.07,0,1,1-.25-2.12A1.05,1.05,0,0,1,321,380.54Z" style="fill:#37474f"></path><path d="M320.14,382.48a1.37,1.37,0,1,1-1.47-1A1.26,1.26,0,0,1,320.14,382.48Z" style="fill:#f28f8f"></path><path d="M327.7,379.77a1.05,1.05,0,0,0,1.18.94,1.07,1.07,0,0,0,.94-1.18,1.08,1.08,0,0,0-1.18-.94A1.07,1.07,0,0,0,327.7,379.77Z" style="fill:#37474f"></path><path d="M329,381.47a1.37,1.37,0,0,0,2.69-.3,1.38,1.38,0,0,0-2.69.3Z" style="fill:#f28f8f"></path><path d="M324.54,385.35a3,3,0,0,1-2.69-1.49.34.34,0,0,1,.2-.43.35.35,0,0,1,.43.2,2.41,2.41,0,0,0,2.38,1,2.45,2.45,0,0,0,2.09-1.54.33.33,0,1,1,.66.09,3,3,0,0,1-2.68,2.11Z" style="fill:#37474f"></path><path d="M323.61,373.65c1.43,5.11,8.83,5.08,8.83,5.08.2-5.52-3.6-9.65-9.49-9s-8.87,6.49-6.82,10.77C316.13,380.52,323.28,379,323.61,373.65Z" style="fill:#37474f"></path></g><g id="freepik--Chest--inject-61"><path d="M404,359.48a15.46,15.46,0,0,1,7.16,9.51c2.23,9.16,3.46,21.31,4.57,38.83-16.48,7-37.18,5.24-46-7.21a34.64,34.64,0,0,1,2.68-9c-.57-6.52-1.08-10.37-1.34-16.79-.22-5.53-.56-12.51,6.82-15.13s12.09-2.07,17.3-1.47C401.21,358.89,404,359.48,404,359.48Z" style="fill:#73D78F"></path><path d="M402.3,316a13.1,13.1,0,0,1,7.42,4.53,18.1,18.1,0,0,1,2.82,5.18,21.33,21.33,0,0,0,2,4.54,8,8,0,0,0,4.09,3.09c1,.31,2.15.58,2.49,1.53s-.51,2-1.44,2.56a6.76,6.76,0,0,1-4.11.8,7.27,7.27,0,0,1,2.15,3.29,4.09,4.09,0,0,1-.72,3.75,4.5,4.5,0,0,1-4.27,1.14c.25,1.33-1.22,2.32-2.53,2.69a6.73,6.73,0,0,1-4.14,0,7.58,7.58,0,0,1-2.3-1.51,24.25,24.25,0,0,1-6.74-9.7c-1.86-4.92-2.06-10.24-2.46-15.42-.13-1.74-1.28-4.89.46-5.87C397,315.44,400.15,315.53,402.3,316Z" style="fill:#263238"></path><path d="M396.47,315.79c2.4.5,4.73,2.45,4.59,5a2,2,0,0,1-1.45,1.67,3.64,3.64,0,0,1-2.3-.17,8.16,8.16,0,0,1-3.46-2.66c-.94-1.23-1.53-3.44.5-3.85A5.23,5.23,0,0,1,396.47,315.79Z" style="fill:#73D78F"></path><path d="M395.11,354.61c3.27-4.34,7.93-7.51,9.42-14.9,1.68-8.31-1.24-15.7-6-16.76,0,0-.81-5.94-8.27-8.49-5.89-2-14.48-.51-19.48,3.1a16.49,16.49,0,0,0-6.17,7.47,17.13,17.13,0,0,0-.27,11.09,11.18,11.18,0,0,0,5,5.6,23.82,23.82,0,0,0,7,2.48c1.52.34,3,.61,4.55,1a11,11,0,0,1,2.34.6,8.26,8.26,0,0,1,1.39,1.14l8,6.49A5.42,5.42,0,0,0,395.11,354.61Z" style="fill:#263238"></path><path d="M395,340.66a1.64,1.64,0,0,0,.22.14c1.15.59.94-1.29,1.88-2.64a2.87,2.87,0,0,1,2.23-1.15,3.6,3.6,0,0,1,3.57,1.75,5.29,5.29,0,0,1-2.49,7.17,4.28,4.28,0,0,1-4.69-.48l.41,14.05a23.82,23.82,0,0,1-8.77,6.39c-7.06,2.85-9-1.18-6.25-4.44l-.42-4a18.05,18.05,0,0,1-5.63-.26,10.64,10.64,0,0,1-7.68-7.65c-.77-2.65-.17-5.14-.45-7.88-.17-1.64-.54-4.2-.6-5.26a10.22,10.22,0,0,0-.17-2.43,8.25,8.25,0,0,0,6.21-4.26,3.7,3.7,0,0,1,.11,2.64,9.36,9.36,0,0,0,7.37-1.53,24.17,24.17,0,0,0,5.49-5.43c1.29.27,1.76,1.8,2.18,3a18.17,18.17,0,0,0,2.75,5,11.06,11.06,0,0,0,1.76,1.92c.19.17,2.1,1.36,2.1,1.39a6.5,6.5,0,0,0,.36,3.06A2.18,2.18,0,0,0,395,340.66Z" style="fill:#ffa8a7"></path><path d="M390.78,343.73c0,1.19-1.32,2.12-2.89,2.08s-2.81-1-2.78-2.22,1.33-2.12,2.89-2.08S390.81,342.55,390.78,343.73Z" style="fill:#f28f8f"></path><path d="M371.74,344.85c0,1.18-1.33,2.12-2.89,2.08s-2.81-1-2.78-2.23,1.32-2.11,2.89-2.07S371.77,343.66,371.74,344.85Z" style="fill:#f28f8f"></path><path d="M382.67,335.51l4.07,1.17a2.23,2.23,0,0,0-1.5-2.68A2.07,2.07,0,0,0,382.67,335.51Z" style="fill:#263238"></path><path d="M386,339.08a1.74,1.74,0,1,1-1.89-1.57A1.74,1.74,0,0,1,386,339.08Z" style="fill:#263238"></path><path d="M373,340a1.74,1.74,0,1,1-1.88-1.58A1.74,1.74,0,0,1,373,340Z" style="fill:#263238"></path><path d="M368.6,337.92l3.89-1.75a2,2,0,0,0-2.76-1.11A2.23,2.23,0,0,0,368.6,337.92Z" style="fill:#263238"></path><polygon points="377.96 339.49 378.3 346.24 373.75 345.45 377.96 339.49" style="fill:#f28f8f"></polygon><path d="M380.16,348.65a8.34,8.34,0,0,1-2.3.35,1.23,1.23,0,0,0-1.08.34c-.25.35-.14.78.17,1.27a3.81,3.81,0,0,0,4.1,1.2,3.27,3.27,0,0,0,2.61-3.32c0-.34-.1-.86-.51-1a1.32,1.32,0,0,0-1.12.3A5.52,5.52,0,0,1,380.16,348.65Z" style="fill:#b16668"></path><path d="M379.71,351.53a3,3,0,0,0,0,.43,4,4,0,0,0,1.3-.15,3.32,3.32,0,0,0,2.55-2.56,2.6,2.6,0,0,0-3.89,2.28Z" style="fill:#f28f8f"></path><path d="M380.68,357.48c3.59-.59,6.16-1.05,10-4.13a10.87,10.87,0,0,0,3.32-5.26s-.37,4.13-1.79,6c-3.73,5-11.33,5.37-11.33,5.37Z" style="fill:#f28f8f"></path><path d="M384,350.8h0Z" style="fill:#b16668"></path></g><path id="freepik--arm--inject-61" d="M429.4,360.47c5-4.35,6.87-7.08,7.88-12.71a107.75,107.75,0,0,0,1.62-26.51c-.33-5.07-2-10.28-3.81-12.52-4.27-5.38-11.79-4.66-10.08.25,1.36,3.9,2.6,6.76,1.62,7.47-.37.34-1.48-1.78-2.74-2.59-.76-.48-2.07-.45-2.3.41,1.22,1.6,1.3,3.83,3.43,6.68,1.19,1.59,2.72,2.81,2.79,4,.13,7-3.43,20.19-3.43,20.19a148,148,0,0,1-15.21,11.71c-1.93,1.24-5.49,1.85-7.28,2.29-2.24,3.71-1.79,9.89.89,13.83,2.94,4.31,7.31,3.94,8.06,2.17C410.84,375.1,421.21,367.66,429.4,360.47Z" style="fill:#ffa8a7"></path></g></g></g><g id="freepik--character-2--inject-61"><g id="freepik--Sofa--inject-61"><path d="M224.7,414.48a1.85,1.85,0,0,1-1.84-1.72l-2.71-38.49c-.14-2-1.19-3.89-2.09-4.41L151,330.31h0a2.73,2.73,0,0,0-.22,1L148,366.62a1.85,1.85,0,0,1-3.68-.28L147,331a4.72,4.72,0,0,1,2.22-4,3.62,3.62,0,0,1,3.55.18l67.12,39.55c2.09,1.21,3.71,4.23,3.92,7.35l2.71,38.48a1.84,1.84,0,0,1-1.71,2Z" style="fill:#263238"></path><path d="M315.85,361.79a1.84,1.84,0,0,1-1.84-1.71l-2.71-38.49c-.14-2-1.19-3.89-2.09-4.41L242.1,277.63h0a2.42,2.42,0,0,0-.23,1l-2.71,35.36a1.85,1.85,0,1,1-3.68-.29l2.71-35.36a4.71,4.71,0,0,1,2.23-4,3.62,3.62,0,0,1,3.54.18L311.06,314c2.09,1.21,3.71,4.23,3.93,7.35l2.7,38.49a1.85,1.85,0,0,1-1.71,2Z" style="fill:#263238"></path><path d="M222.21,372.44,148.42,329a5.16,5.16,0,0,1,0-9.54L228.8,273a13.89,13.89,0,0,1,12.76,0l73.79,43.4a5.16,5.16,0,0,1,0,9.55L235,372.44a13.91,13.91,0,0,1-12.76,0Zm8.47-96.16L150.3,322.75c-.81.47-1.31,1.05-1.31,1.51s.5,1,1.31,1.51l73.79,43.4a10.1,10.1,0,0,0,9,0l80.38-46.47c.81-.46,1.31-1,1.31-1.51s-.5-1-1.31-1.5l-73.79-43.41h0a10.17,10.17,0,0,0-9,0Zm9.93-1.63h0Z" style="fill:#455a64"></path><path d="M275.42,291.11a1.51,1.51,0,0,0,1.47-1.19l6.12-28a1.5,1.5,0,1,0-2.94-.64l-6.12,28a1.5,1.5,0,0,0,1.15,1.79A1.65,1.65,0,0,0,275.42,291.11Z" style="fill:#37474f"></path><path d="M259.67,282a1.51,1.51,0,0,0,1.47-1.19l6.12-28a1.5,1.5,0,1,0-2.94-.64l-6.13,28a1.5,1.5,0,0,0,1.15,1.79A1.24,1.24,0,0,0,259.67,282Z" style="fill:#37474f"></path><path d="M241.05,244.84a1.52,1.52,0,0,1,.91-1.25l7.89-4.56a4.83,4.83,0,0,1,4.35,0l44.06,25.44a1.52,1.52,0,0,1,.9,1.25v2.36a1.53,1.53,0,0,1-.9,1.26l-7.89,4.56a4.83,4.83,0,0,1-4.35,0L242,248.46a1.52,1.52,0,0,1-.91-1.26Z" style="fill:#37474f"></path><path d="M242,243.59l7.89-4.56a4.83,4.83,0,0,1,4.35,0l34,19.62v15.77a4.49,4.49,0,0,1-2.17-.52L242,248.46a1.52,1.52,0,0,1-.91-1.26v-2.36A1.52,1.52,0,0,1,242,243.59Z" style="fill:#263238"></path><path d="M254.2,239l44.06,25.44a1.33,1.33,0,0,1,0,2.51l-7.89,4.56a4.83,4.83,0,0,1-4.35,0L242,246.1a1.32,1.32,0,0,1,0-2.51l7.89-4.56A4.83,4.83,0,0,1,254.2,239Z" style="fill:#455a64"></path><path d="M153.26,308.92l83.38-48.21a1.92,1.92,0,0,1,1.92.19l71.74,42.24a6,6,0,0,1,2.72,4.71v11.38a1.89,1.89,0,0,1-.8,1.76L228.85,369.2a1.89,1.89,0,0,1-1.93-.19l-71.74-42.23a6,6,0,0,1-2.72-4.71V310.69A1.94,1.94,0,0,1,153.26,308.92Z" style="fill:#73D78F"></path><g style="opacity:0.8"><path d="M153.26,308.92l83.38-48.21a1.92,1.92,0,0,1,1.92.19l71.74,42.24a6,6,0,0,1,2.72,4.71v11.38a1.89,1.89,0,0,1-.8,1.76L228.85,369.2a1.89,1.89,0,0,1-1.93-.19l-71.74-42.23a6,6,0,0,1-2.72-4.71V310.69A1.94,1.94,0,0,1,153.26,308.92Z" style="fill:#fff"></path></g><path d="M228.85,369.2,312.22,321a1.92,1.92,0,0,0,.81-1.76V307.85a5.77,5.77,0,0,0-.92-2.87l-83.37,48.21a5.71,5.71,0,0,1,.9,2.87v11.38A1.9,1.9,0,0,1,228.85,369.2Z" style="fill:#73D78F"></path><g style="opacity:0.6000000000000001"><path d="M228.85,369.2,312.22,321a1.92,1.92,0,0,0,.81-1.76V307.85a5.77,5.77,0,0,0-.92-2.87l-83.37,48.21a5.71,5.71,0,0,1,.9,2.87v11.38A1.9,1.9,0,0,1,228.85,369.2Z" style="fill:#fff"></path></g><g style="opacity:0.4"><path d="M229.64,367.44V356.06a6,6,0,0,0-2.72-4.71l-71.74-42.24a1.66,1.66,0,0,0-2.72,1.58v11.38a6,6,0,0,0,2.72,4.71L226.92,369a1.66,1.66,0,0,0,2.72-1.57Z" style="fill:#73D78F"></path></g><path d="M146.5,236.2l73.18-42.31a1.77,1.77,0,0,1,1.7.25l9.87,5.7a7.58,7.58,0,0,1,3.25,4.66l11,63.53c.16.9,0,1.51-.48,1.77l-73.17,42.31a1.73,1.73,0,0,1-1.71-.25l-9.86-5.69A7.62,7.62,0,0,1,157,301.5L146,238C145.87,237.07,146.06,236.46,146.5,236.2Z" style="fill:#73D78F"></path><g style="opacity:0.8"><path d="M146.5,236.2l73.18-42.31a1.77,1.77,0,0,1,1.7.25l9.87,5.7a7.58,7.58,0,0,1,3.25,4.66l11,63.53c.16.9,0,1.51-.48,1.77l-73.17,42.31a1.73,1.73,0,0,1-1.71-.25l-9.86-5.69A7.62,7.62,0,0,1,157,301.5L146,238C145.87,237.07,146.06,236.46,146.5,236.2Z" style="fill:#fff"></path></g><path d="M172.34,310.34c.15.91,0,1.51-.48,1.77L245,269.8c.44-.26.62-.87.47-1.76l-11-63.54a7.06,7.06,0,0,0-1.22-2.7l-73.17,42.31a6.89,6.89,0,0,1,1.21,2.7Z" style="fill:#73D78F"></path><g style="opacity:0.6000000000000001"><path d="M172.34,310.34c.15.91,0,1.51-.48,1.77L245,269.8c.44-.26.62-.87.47-1.76l-11-63.54a7.06,7.06,0,0,0-1.22-2.7l-73.17,42.31a6.89,6.89,0,0,1,1.21,2.7Z" style="fill:#fff"></path></g><g style="opacity:0.4"><path d="M170.15,311.86l-9.86-5.69A7.62,7.62,0,0,1,157,301.5L146,238c-.15-.9,0-1.51.48-1.77a1.73,1.73,0,0,1,1.71.25l9.87,5.69a7.6,7.6,0,0,1,3.25,4.67l11,63.53c.15.9,0,1.51-.48,1.77A1.73,1.73,0,0,1,170.15,311.86Z" style="fill:#73D78F"></path></g><path d="M180.38,345.92a1.51,1.51,0,0,0,1.45-1.93l-6.13-21a1.51,1.51,0,1,0-2.89.85l6.12,21A1.51,1.51,0,0,0,180.38,345.92Z" style="fill:#37474f"></path><path d="M164.62,336.83a1.59,1.59,0,0,0,.43-.06,1.51,1.51,0,0,0,1-1.87l-6.12-21a1.51,1.51,0,1,0-2.9.84l6.13,21A1.5,1.5,0,0,0,164.62,336.83Z" style="fill:#37474f"></path><path d="M140.08,303.09a1.52,1.52,0,0,1,.9-1.25l7.89-4.56a4.77,4.77,0,0,1,4.35,0l44.07,25.44a1.52,1.52,0,0,1,.9,1.25v2.36a1.51,1.51,0,0,1-.91,1.25l-7.89,4.56a4.77,4.77,0,0,1-4.35,0L141,306.71a1.54,1.54,0,0,1-.9-1.26Z" style="fill:#37474f"></path><path d="M141,301.84l7.89-4.56a4.77,4.77,0,0,1,4.35,0l34,19.62v15.76a4.41,4.41,0,0,1-2.17-.52L141,306.71a1.54,1.54,0,0,1-.9-1.26v-2.36A1.52,1.52,0,0,1,141,301.84Z" style="fill:#263238"></path><path d="M153.22,297.28l44.07,25.44a1.33,1.33,0,0,1,0,2.51l-7.9,4.56a4.83,4.83,0,0,1-4.35,0L141,304.35a1.33,1.33,0,0,1,0-2.51l7.89-4.56A4.77,4.77,0,0,1,153.22,297.28Z" style="fill:#455a64"></path></g><g id="freepik--Mud--inject-61"><path d="M246.4,313.16a5.58,5.58,0,0,0,3.34-1,8.6,8.6,0,0,0,1.94-1.16,2.36,2.36,0,0,0,.86-2,3.1,3.1,0,0,0-1.5-1.9c-2.06-1.43-9.52-5.64-11.54-2.09-.88,1.54.35,3.17,1.41,4.12C242.35,310.42,244.45,312.84,246.4,313.16Z" style="fill:#b16668"></path><path d="M251.39,316.72c3.79,2.95,7.94,6,12.74,6.12a18.39,18.39,0,0,0,7.25-1.72c1.44-.59,3-1.42,3.46-2.91a3.74,3.74,0,0,0-1.26-3.74,9.23,9.23,0,0,0-3.72-1.81,75.52,75.52,0,0,0-9-1.86c-2.43-.4-4.45-.25-6.39,1.37C253.4,313.08,249.81,315.48,251.39,316.72Z" style="fill:#b16668"></path><path d="M206.1,308.67a5.58,5.58,0,0,0,3.34-1,8.63,8.63,0,0,0,1.94-1.17,2.33,2.33,0,0,0,.86-2,3.1,3.1,0,0,0-1.5-1.9c-2.06-1.43-9.52-5.64-11.54-2.1-.88,1.55.35,3.18,1.41,4.12C202.05,305.93,204.15,308.34,206.1,308.67Z" style="fill:#b16668"></path><path d="M211.09,312.23c3.79,2.95,7.94,6,12.74,6.12a18.39,18.39,0,0,0,7.25-1.72c1.44-.6,3-1.42,3.47-2.91a3.79,3.79,0,0,0-1.27-3.75,9.36,9.36,0,0,0-3.72-1.81,77.53,77.53,0,0,0-9-1.85c-2.43-.4-4.45-.25-6.39,1.36C213.1,308.58,209.51,311,211.09,312.23Z" style="fill:#b16668"></path><path d="M225.57,293.91a5.68,5.68,0,0,0,2.94-1.88,9.17,9.17,0,0,0,1.53-1.65,2.36,2.36,0,0,0,.28-2.16,3.05,3.05,0,0,0-2-1.41C226,286,217.64,284,216.68,288c-.42,1.73,1.21,2.95,2.5,3.57C220.91,292.39,223.6,294.13,225.57,293.91Z" style="fill:#b16668"></path><path d="M231.35,295.94c4.45,1.79,9.3,3.61,13.93,2.36a18.27,18.27,0,0,0,6.49-3.66c1.22-1,2.5-2.19,2.53-3.75a3.76,3.76,0,0,0-2.25-3.25,9.26,9.26,0,0,0-4.08-.71,77.6,77.6,0,0,0-9.13.7c-2.45.29-4.35,1-5.77,3.08C232.27,291.89,229.49,295.2,231.35,295.94Z" style="fill:#b16668"></path><path d="M178.1,246.67A7.43,7.43,0,0,1,177,244c-.19-1.46.51-2.16,1.3-3.2A7.12,7.12,0,0,1,181,238.1a2.83,2.83,0,0,1,1.42-.33,1.47,1.47,0,0,1,1.21.73,8.34,8.34,0,0,1,.26.85.76.76,0,0,0,.62.56c.22,0,.45-.13.65,0s.25.28.3.46c.19.7.21,1.39.41,2.07.25.87.51,1.72.68,2.62a4.23,4.23,0,0,1,.07,1.42c-.19,1.16-1.49,2.35-2.36,3.06a3.89,3.89,0,0,1-1.19.78c-1.28.46-2.65-.46-3.52-1.5a14.92,14.92,0,0,1-1.33-1.92Z" style="fill:#b16668"></path><path d="M186.41,237.39a.69.69,0,0,0-.19.1c-1.1.75.37,2.94.92,3.65,1.23,1.62,1.7-.57,2-1.63a12.4,12.4,0,0,0,.69-3.36c0-.47,0-1.21-.43-1.54-.71-.55-1.27.43-1.46,1s-.32,1.23-.85,1.5C186.89,237.27,186.63,237.29,186.41,237.39Z" style="fill:#b16668"></path><path d="M184.22,235.76a2.7,2.7,0,0,0,.17-.89c.06-.63.11-1.27.17-1.9a10.53,10.53,0,0,0,.05-1.25,5.29,5.29,0,0,0-1-2.94.54.54,0,0,0-.38-.28.4.4,0,0,0-.38.26,1.21,1.21,0,0,0-.07.5c0,1.73,0,3.46,0,5.19a3.51,3.51,0,0,0,.27,1.64C183.38,236.74,184,236.25,184.22,235.76Z" style="fill:#b16668"></path><path d="M180,232.82a4.8,4.8,0,0,0-2.48-2.68,4,4,0,0,1-1.08-.48.9.9,0,0,0-.26-.17c-.29-.09-.55.24-.58.55-.16,1.42,1.5,1.91,2.14,2.85a4.51,4.51,0,0,1,.58,1.77c.13.77,1.06,3.71,2.22,2.15C181.23,235.85,180.36,233.78,180,232.82Z" style="fill:#b16668"></path><path d="M176.93,236.09a5.34,5.34,0,0,0-.65-1.08,6.15,6.15,0,0,0-3.14-1.72,2.46,2.46,0,0,0-.92-.17.82.82,0,0,0-.73.52c-.13.49.35.91.77,1.2a13.82,13.82,0,0,1,3.22,3.21,4.53,4.53,0,0,0,.77.92,1.25,1.25,0,0,0,1.12.27C178.78,238.77,177.28,236.77,176.93,236.09Z" style="fill:#b16668"></path><path d="M172.77,239.5a.78.78,0,0,0-.71.24.56.56,0,0,0,0,.61,1.25,1.25,0,0,0,.51.39,7.82,7.82,0,0,1,2.23,1.08c.3.3.56.73,1,.75a.32.32,0,0,0,.28-.1.38.38,0,0,0,.06-.23C176.28,240.37,174.41,239.57,172.77,239.5Z" style="fill:#b16668"></path><path d="M227.33,323.36a5.71,5.71,0,0,0-3.53,2,2.88,2.88,0,0,0,.19,3.77c.49.41,1.46.84,1.19,1.59s-1.64,1.18-2.34,1.55a2.78,2.78,0,0,0-1.55,2.89,5.7,5.7,0,0,0,2.72,3.6c1.93,1.23,4.43,1.17,6.64,1.11,3.14-.1,6.16-1.17,9.29-1.45,1.88-.16,3.86-.06,5.55-.9a6.52,6.52,0,0,0,2.67-2.61c1.16-2,1.24-4.92-.58-6.35a9.62,9.62,0,0,0-2-1.05c-1.63-.8-3-2-4.58-2.93-2.18-1.27-3.66-.87-5.93-.86C232.43,323.71,230.07,322.78,227.33,323.36Z" style="fill:#b16668"></path><path d="M244.57,325.27a5,5,0,0,0,2.05.68,1.49,1.49,0,0,0,1.33-.37,1.13,1.13,0,0,0,.16-1c-.31-1.05-2.09-2.54-3.25-2.41C243,322.37,243.31,324.5,244.57,325.27Z" style="fill:#b16668"></path></g><g id="freepik--kid--inject-61"><g id="freepik--bottom--inject-61"><path d="M267.58,168.15l-12.26,12.27-7.81,18.83s4.14,10.42,7.31,20.44a31.62,31.62,0,0,0-17.51,14.17c-3.17,5.27-5.17,8-7.39,11.23s-3.21,4.63-4.92,7.27a16.36,16.36,0,0,1-6.75,5.94c-1.21.56-2.58,1.05-3.28,2.19a4,4,0,0,0-.39,2.83c.36,2,1.64,3.74,2.43,5.63a24.27,24.27,0,0,1,1.41,7.13,24.94,24.94,0,0,0,1.41,7.14,8.32,8.32,0,0,0,5,5,3,3,0,0,0,3.1-.56,4.06,4.06,0,0,0,.63-3,67.94,67.94,0,0,1,.22-9,21.26,21.26,0,0,1,2.7-7.86c2.41-4.32,6.46-8,10.23-11.1,9.77-8.06,13.69-12.19,24.35-20.59,9.91-7.82,15.62-11.55,15.32-18.28-.56-12.14-3.07-7.35-6.9-26.12C271.21,175.69,267.58,168.15,267.58,168.15Z" style="fill:#f0997a"></path><path d="M273.8,168.24c1.15,4.09,2.5,8.73,4.63,22.12,1.75,10.91,3,22.32,3,22.32s-15,7.51-31.64.32l-18.51-45.95Z" style="fill:#37474f"></path><path d="M249.79,213A38.85,38.85,0,0,0,269,216.13l-6.35-19.73s8.78-6.77,6.49-16.44c-2.35,5-15.68,13.82-15.68,13.82L249,211Z" style="fill:#263238"></path><path d="M274.17,305.84c-9.5-6.92-12-10.32-10.32-23a45.48,45.48,0,0,1,1.56-8.28s2-10.27,3.66-19.39c2.86-15.51,3.45-18.56,1.24-26.59-4.18-15.15-5.66-17.59-10.26-34,10-7.1,10-14.92,8.48-26.4-5.78,2.41-12.73,2.8-18.8,2.9s-12.17.12-17.88-1.87c-10.6,22.32-6.65,27.72,5.28,49.23,6.13,11.05,11.13,21.16,11.13,21.16-1.48,7.49-1.42,10.88-.32,20.62.65,5.77,2,12,1.77,19.57-.1,3-.36,4.81-2.14,7-2.5,3.16-2.33,6.44.13,10,5.82,3.05,9.58,11.25,15.58,14.11C267.36,312.18,279.64,312.54,274.17,305.84Z" style="fill:#ffbda7"></path><path d="M226.26,169s-.8,6.61-1.32,12.66a46.49,46.49,0,0,0,2.55,18.38c2.38,7.17,15.45,29.89,15.45,29.89,10.69-11.16,20.11-11.18,25.35-9.86l-7.59-25.17s14.81-5,8.59-27Z" style="fill:#455a64"></path><path d="M277.73,310.06a3.62,3.62,0,0,1-1.54,3.36c-1.71.87-6.34,1.83-11.63-.24s-6.53-3.55-8.26-5.92-3.25-4.8-5.58-6c-2.17-1.08-5.43-2.88-6-3.77s.33-4,.33-4Z" style="fill:#263238"></path><path d="M249.63,280s-.54-.32-.87.38-.82,2.9-1.68,5.36a57.1,57.1,0,0,0-2.19,8.91c-.1,1.69,4.39,3.88,6.55,5.39a23.34,23.34,0,0,1,5.63,5.9,17.29,17.29,0,0,0,9.17,6.22c4.21,1,9.3.84,10.87-.84,1.95-2.08,2.73-4.35-2.79-8.8-1.05-.85-4.16-3.9-5.35-5.14a28.58,28.58,0,0,1-3.52-4.39,8.47,8.47,0,0,1-1.42-2.89,20.19,20.19,0,0,1,0-3.3,1.74,1.74,0,0,0-.12-.68,1.41,1.41,0,0,0-.63-.6,7.22,7.22,0,0,0-2.93-.79,8.33,8.33,0,0,0-2.23,0,3.2,3.2,0,0,0-1.94,1c-.2.24-.35.53-.57.76-1.34,1.43-2.06-1.42-2.47-2.3-.2-.44-2.16-1.54-2.46-1.93a10.22,10.22,0,0,1-.9-1A1.46,1.46,0,0,1,249.63,280Z" style="fill:#37474f"></path><path d="M257.07,305.91a31.89,31.89,0,0,0-2.34-3h0s6,4.29,9.47,3c2.24-.83,1.73-2.64,1.81-3.16s5.33-1.51,7.24-1.27h0c.45.41.83.75,1.07.95,5.52,4.45,4.74,6.72,2.79,8.8-1.57,1.68-5.39,2.35-10.83,1A17.85,17.85,0,0,1,257.07,305.91Z" style="fill:#455a64"></path><path d="M265.86,301.2c3.5,2.52,1.66,2.83.53,2.72s-5.81-4.64-9-8.79c-3.33-4.33-6.09-8.71-7.33-10.31-.46-.59-1.55-1.68-2-2.34a19.74,19.74,0,0,1,.68-2.13,1,1,0,0,1,1-.66l.11,1.41a3.23,3.23,0,0,0,.9,1,10.17,10.17,0,0,1,2.37,2,16.63,16.63,0,0,0,1.18,2.44C256.6,291.72,262.37,298.68,265.86,301.2Z" style="fill:#263238"></path><path d="M266.26,303.28a.34.34,0,0,1-.22-.15.39.39,0,0,1,.08-.55,9.5,9.5,0,0,1,7.81-1,.4.4,0,0,1,.24.51.39.39,0,0,1-.51.23,8.87,8.87,0,0,0-7.07.92A.37.37,0,0,1,266.26,303.28Z" style="fill:#f0f0f0"></path><path d="M263.34,300.52a.44.44,0,0,1-.22-.14.41.41,0,0,1,.07-.56,9.52,9.52,0,0,1,7.78-1.21.4.4,0,0,1,.25.51.39.39,0,0,1-.5.24,8.83,8.83,0,0,0-7,1.08A.42.42,0,0,1,263.34,300.52Z" style="fill:#f0f0f0"></path><path d="M260.75,297.56a.4.4,0,0,1-.14-.7,9.53,9.53,0,0,1,7.82-1,.4.4,0,0,1,.23.51.39.39,0,0,1-.51.24,8.81,8.81,0,0,0-7.06.91A.38.38,0,0,1,260.75,297.56Z" style="fill:#f0f0f0"></path><path d="M258.48,294.9a.37.37,0,0,1-.23-.14.39.39,0,0,1,.06-.55,9.51,9.51,0,0,1,7.76-1.36.41.41,0,0,1,.26.5.4.4,0,0,1-.5.25,8.85,8.85,0,0,0-7,1.22A.37.37,0,0,1,258.48,294.9Z" style="fill:#f0f0f0"></path><path d="M256.08,291.84a.42.42,0,0,1-.22-.13.4.4,0,0,1,0-.56c1.92-1.6,5.62-2.15,8.43-1.23a.4.4,0,0,1,.26.5.41.41,0,0,1-.5.26c-2.53-.83-6-.34-7.69,1.08A.4.4,0,0,1,256.08,291.84Z" style="fill:#f0f0f0"></path><path d="M231.37,290.06a3.56,3.56,0,0,1-3.15,1.81c-1.86-.3-6.1-2.18-9.13-6.85s-3.18-6.56-3.19-9.44.15-5.69-1.05-7.95c-1.11-2.1-2.68-5.39-2.62-6.42s2.57-3,2.57-3Z" style="fill:#263238"></path><path d="M225.66,251s.52-.67-.14-.3-2.85,1.95-4.18,2.6A36.11,36.11,0,0,0,214,259c-1.05,1.29,1.28,5.6,2.14,8a23.14,23.14,0,0,1,1.11,7.93A16.92,16.92,0,0,0,221,285.14c2.77,3.23,6.92,6,9.14,5.55,2.74-.54,4.66-1.9,2.81-8.61-.35-1.27-1.08-5.48-1.32-7.15-.38-2.5-.74-5.35.62-7.62a24.35,24.35,0,0,1,1.89-2.52,2,2,0,0,0,.48-.85,2.11,2.11,0,0,0-.63-1.62,20.74,20.74,0,0,0-2-2.43,8,8,0,0,0-1.76-1.3,3.08,3.08,0,0,0-2.12-.31c-.3.08-.58.22-.89.28-1.88.37-.83-2.31-.65-3.25.09-.46-.59-1.63-.61-2.11s-.82-.7-.79-1.12A1.39,1.39,0,0,1,225.66,251Z" style="fill:#37474f"></path><path d="M217.28,275a32.22,32.22,0,0,0-.18-3.69h0s2.32,6.85,5.83,7.82c2.25.62,2.88-1.12,3.24-1.49s5.12,1.85,6.5,3.14h0c.11.58.22,1.07.3,1.36,1.85,6.71-.07,8.07-2.81,8.61-2.22.44-5.64-1.21-9.19-5.41A17.41,17.41,0,0,1,217.28,275Z" style="fill:#455a64"></path><path d="M227,276.22c1.34,4-.3,3.2-1.13,2.47s-2-7-2.16-12.16c-.18-5.36.13-10.43.05-12.41,0-.74,0-1.58,0-2.34.73-.48,1.34-1.19,1.71-1.4.65-.36.86-.06.86-.06l-.84,1.28c0,.43.43,1.17.59,1.58a5,5,0,0,1,.48,2.13,17.13,17.13,0,0,0-.46,2.62C225,263.36,225.64,272.21,227,276.22Z" style="fill:#263238"></path><path d="M226.11,278.1a.35.35,0,0,1-.1-.24.4.4,0,0,1,.38-.4,9.35,9.35,0,0,1,6.82,3.65.4.4,0,0,1-.1.54.38.38,0,0,1-.54-.1,8.63,8.63,0,0,0-6.16-3.31A.37.37,0,0,1,226.11,278.1Z" style="fill:#f0f0f0"></path><path d="M225.36,274.23a.38.38,0,0,1-.1-.24.39.39,0,0,1,.38-.4,9.35,9.35,0,0,1,6.89,3.49.39.39,0,1,1-.63.45,8.7,8.7,0,0,0-6.23-3.17A.37.37,0,0,1,225.36,274.23Z" style="fill:#f0f0f0"></path><path d="M225,270.4a.38.38,0,0,1-.09-.25.38.38,0,0,1,.38-.39,9.29,9.29,0,0,1,6.81,3.65.4.4,0,0,1-.1.54.38.38,0,0,1-.54-.11,8.7,8.7,0,0,0-6.16-3.31A.37.37,0,0,1,225,270.4Z" style="fill:#f0f0f0"></path><path d="M224.69,267a.51.51,0,0,1-.1-.24.4.4,0,0,1,.37-.42,9.39,9.39,0,0,1,7,3.36.38.38,0,0,1-.08.54.38.38,0,0,1-.54-.08,8.66,8.66,0,0,0-6.3-3A.39.39,0,0,1,224.69,267Z" style="fill:#f0f0f0"></path><path d="M225,263.36a.33.33,0,0,1-.1-.23.38.38,0,0,1,.36-.41c2.44-.18,5.7,1.5,7.42,3.84a.39.39,0,1,1-.63.46c-1.54-2.1-4.57-3.69-6.74-3.53A.36.36,0,0,1,225,263.36Z" style="fill:#f0f0f0"></path></g><g id="freepik--top--inject-61"><g id="freepik--arm--inject-61"><path d="M274.58,91.86c-.57-1.76-2.66-2.84-4.91-4.74a16.75,16.75,0,0,1-4.09-6.48c-.3-1-1.94-2.74-.15-3.2a2.92,2.92,0,0,1,2.65.67c.34.26,3.07,3.92,2.85,2.19-.7-2.8-3.84-6.73-5.05-9.76-.33-1.22-1-3.21.26-4.07.9-.39,1.7.46,2.15,1.16,1.19-.88,2.6-.35,3.75.26a4.81,4.81,0,0,0,1.55-.12,2.72,2.72,0,0,1,2.69,1.72c3.71-.89,5.82,5.59,6.94,8.25.38,1,.74,2,1.13,3,1.5,3.87.8,4.16,1.45,7.12.73,2.13,1.72,4,5,11.39s3.59,8.84,4.55,12.22c1.32,4.64-.75,6.68-7.43,12.83-10.78,9.93-13.38,11.57-17.93,19.87l-12.53-20.3a20.75,20.75,0,0,0,8.09-3.68c8.84-6,11.14-8,13.39-10.11C278.9,110.07,275.51,95.35,274.58,91.86Z" style="fill:#ffbda7"></path></g><path d="M270.93,80.3c.06.48-.11.54-.4.37a2.68,2.68,0,0,1,0,.69,3.2,3.2,0,0,1-2.19-1.56,6.38,6.38,0,0,0-1.83-2.06,2,2,0,0,0-1.28-.22c-1.37.56.11,2.17.4,3.12a16.75,16.75,0,0,0,4.09,6.48,48.18,48.18,0,0,1,4.06,3.35,2.54,2.54,0,0,0,2-.41,2.81,2.81,0,0,0,.86-2.6,10.63,10.63,0,0,0-.94-2.69,10.17,10.17,0,0,1-.88-2.94c1.46.24,2.43,1.62,3,3s1.08,2.83,2.18,3.81,3.15,1.07,3.82-.24a3.44,3.44,0,0,0,.13-2.11,45.27,45.27,0,0,0-3.92-12.37,4.7,4.7,0,0,0-2.37-2.66,5.25,5.25,0,0,1-1.73-.56c-.43-.35-.62-1-1.12-1.19s-1.11.07-1.68,0c-.88-.08-1.55-1-2.44-1s-1.82.9-2.65.34c-.63-.42-.6-1.36-1.34-1.79a2.23,2.23,0,0,0-.89-.29c-.8,1-.27,2.68,0,3.78C267.09,73.57,270.23,77.5,270.93,80.3Z" style="fill:#b16668"></path><path d="M278.78,110s-.64-3.22-1.53-7.06c0,0,2.52,1.5,7.53-.2s5.32-5,5.32-5c.21.47.42,1,.66,1.49,3.17,7.25,3.76,8.92,4.72,12.3,1.32,4.64-.77,6.69-7.45,12.84-9.74,9-13,11.31-16.82,17.79h0s-1.49-5.82-4.63-8.93a18.85,18.85,0,0,0-5.54-3.42l-3.77-6.07a24.81,24.81,0,0,0,8.18-3.76A118.08,118.08,0,0,0,278.78,110Z" style="fill:#37474f"></path><g id="freepik--arm--inject-61"><path d="M278.52,84.76a8,8,0,0,0-1.23-2,6,6,0,0,0-4.06-2.31c-.19,0-.11.19,0,.25.61.43,1.29.75,1.89,1.2a9,9,0,0,1,1.62,1.52,8,8,0,0,1,1.09,1.76,8.87,8.87,0,0,1,.36,1,2.12,2.12,0,0,0,.37,1c.11.12.4.17.45,0A3.78,3.78,0,0,0,278.52,84.76Z" style="fill:#9a4a4d"></path></g><g id="freepik--chest--inject-61"><path d="M221,150.78c-3.15-11.82.6-9.88,1.54-13.76s1.92-8.18,5.61-9.9c0,0,11.34-1.9,12.8-2.1a103.1,103.1,0,0,1,12.68-1.18c3.18-.07,4.85-.53,7.73,1.46s8.13,6,9.94,17.6c2.55,16.22,4.22,23.28,5.15,33.61-3.27,9.44-28.34,17.09-53,8.55a123,123,0,0,0,1.36-14.25C224.82,166.44,223.19,158.89,221,150.78Z" style="fill:#73D78F"></path></g><path d="M222.53,156.7c1.37,5.75,2.29,10.82,2.29,14.11a105.62,105.62,0,0,1-1,12.09c1.46.52,3.06.72,4.22-.23s1.44-3.13,2.77-4.16a7.43,7.43,0,0,1,1.16-.67c3.48-2,4-5.77,2.22-9.06-.95-1.82-2.17-3.62-2.24-5.67-.09-2.46,1.48-4.23-1.42-5.87a7.82,7.82,0,0,0-3.37-.85A18,18,0,0,0,222.53,156.7Z" style="fill:#b16668"></path><path d="M236.59,166.16a.81.81,0,0,0,.31-.57c.1-.71-1-2.34-1.79-2.15C233.3,163.87,235,167.18,236.59,166.16Z" style="fill:#b16668"></path><path d="M222.57,137c.93-3.81,1.75-8.23,5.44-10l1.78-.27h0a28.35,28.35,0,0,1,3.77-.81c3.28-.52,6.62-.86,7.42-1a105.41,105.41,0,0,1,12.68-1.22c3.18-.07,5.06-.49,7.94,1.5s7.75,5.69,9.54,16.57c-.23-.84-1.69-5.79-4.56-8.63-3.14-3.11-9.89-5-9.89-5s.26,2.18-2.73,4.06c-3.48,2.19-12,1.51-15.61-1.16l-7.26,9.37s-4.13,10-10.06,10.28C217.88,139,221.63,140.9,222.57,137Z" style="fill:#455a64"></path><g id="freepik--arm--inject-61"><path d="M199.31,109.38c.82-10.67,2.38-18.07,2.27-20.39s-.94-3.11-.56-7.24c.15-1.57.24-3.15.41-4.72.37-2.51.9-7.81,3.94-8.25a4.2,4.2,0,0,1,1.3-1.7,2.67,2.67,0,0,1,2.22-.54,3.54,3.54,0,0,1,.58-.79c1.14-.88,1.76-.94,2.71-.56.27-.41.17-.75.74-1.34,1.23-1.16,2.57-.25,2.76,1.7s-1.07,6.57-1.64,9.86c-.14.61-.48,2-.21,2.24,1.12.58,1.93-4,3.89-4.45.93-.64,2.53,0,1.94,1.25-.61,2.15-.92,3.64-1.58,6.52s-3.93,5.4-4.39,8c-.65,3.69.62,19.29.62,19.29s2.44,4.42,6.35,10.77c3.54,5.74,5.62,7.29,9,7.81,2.64,3.91,2.91,13.27-.93,19.4-2.8,4.48-4.69,5.09-7.74,4.51-1.93-5-4.14-7.22-7.89-12.63-5.85-8.42-9.79-14.25-12.31-19.31C198.94,115,199,113.8,199.31,109.38Z" style="fill:#ffbda7"></path><path d="M212.51,78.86a3.09,3.09,0,0,0-2.18.59,6.11,6.11,0,0,0-1.75,1.61,5,5,0,0,0-.81,4.85c0,.11.18.11.2,0,.09-.71.08-1.43.23-2.13a6.32,6.32,0,0,1,1-2.28,6.08,6.08,0,0,1,3.37-2.36C212.67,79.1,212.61,78.89,212.51,78.86Z" style="fill:#f0997a"></path></g><path d="M200.64,118.89c-2-3.67-1.88-4.06-1.41-9.19.13-1.43.31-3.12.45-4.43,2.2,1.44,11.26,1.86,14.25-2.33h0c.19,3,.48,5.25.48,5.25s2.57,4.39,6.48,10.73c3.54,5.74,5.48,7.36,8.9,7.88,2.79,3.85,3.11,13.34-.73,19.47-2.8,4.48-5,5.09-8,4.51-1.93-5-4.27-7.14-8-12.55A227.46,227.46,0,0,1,200.64,118.89Z" style="fill:#37474f"></path><g id="freepik--Head--inject-61"><path d="M261.44,81.55a5.49,5.49,0,0,1,0,4.14,1.41,1.41,0,0,0-.12.48,1.47,1.47,0,0,0,.2.61,10.89,10.89,0,0,1,0,8.94c-2,4.74-6.39,8-10.3,11.13l-11,8.74c-.8.64-1.64,1.24-2.44,1.88-1.07.85-1.65,1.31-2.61-.11-2.52-3.73-6-6.66-8.82-10.2-2-2.51-3.42-4.69-3.49-8A12.5,12.5,0,0,1,225.53,91a2.84,2.84,0,0,0,.66-1,2.45,2.45,0,0,0,.06-.81,12,12,0,0,1,.46-4.31,9.72,9.72,0,0,1,4.11-4.7c5.14-3.32,10.76-2.55,16.53-3a17.54,17.54,0,0,0,5.76-1.29c1.61-.71,3.44-.81,4.09,1.23a6.46,6.46,0,0,1,.09,2.7,3.22,3.22,0,0,1,4,1.4A3.65,3.65,0,0,1,261.44,81.55Z" style="fill:#263238"></path><path d="M229.93,114.26a7.19,7.19,0,0,1-3.75-3c-1.25-1.89-1.53-4.85-.93-6.13a4.33,4.33,0,0,1,4.15-2.44,3.54,3.54,0,0,1,2.9,1.87c.87,1.2,2.52,3.08,3.4.61.55-1.53-.34-3.32.62-4.77a12.78,12.78,0,0,0,.84-1.1,3.32,3.32,0,0,0,.13-2.05c-.54-3.25-2.77-7.3,1.61-8.82,3.69-1.28,7.91-.14,11.56-1.54A11.26,11.26,0,0,1,254,85.66a5.38,5.38,0,0,1,3.56,1.57,13.62,13.62,0,0,1,4.53,7.37c.28,1.52-.17,3.4.34,4.84a17.21,17.21,0,0,1,1.76,4.87,12.67,12.67,0,0,1-1.28,10,14.87,14.87,0,0,1-9.85,6.35l.46,5.42c6.51,5.55-10.51,9.12-17.1,1.07l-1.93-14.36A5.2,5.2,0,0,1,229.93,114.26Z" style="fill:#ffbda7"></path><path d="M264.4,105.14a3.49,3.49,0,0,0-3-.44,2.57,2.57,0,0,0-1.8,3.2,7.54,7.54,0,0,0,1,1.34,1.65,1.65,0,0,1,.36,1.56c-.32.73-1.31.81-2,1.25a2,2,0,0,0-.15,3c.33.28.8.48.92.9a3.29,3.29,0,0,1,.05.54,1.28,1.28,0,0,0,.49.84,12,12,0,0,0,4.11-12.21Z" style="fill:#b16668"></path><path d="M258.4,107h.07c.68,0,.83,1.74-.07,1.37C258,108.21,257.88,107.14,258.4,107Z" style="fill:#b16668"></path><path d="M253.09,120.67a24.11,24.11,0,0,1-11.36-.82,10.6,10.6,0,0,1-5.4-5,6.78,6.78,0,0,0,3.75,6.32c5.08,2.71,13.21,1.76,13.21,1.76Z" style="fill:#f0997a"></path><path d="M246.54,110.69c.88-1.27,2.1-.1,4.54-.14s3.6-1.5,4.32-.09c.6,1.17-.41,4.08-4.42,4.39C247.55,115.12,245.74,111.81,246.54,110.69Z" style="fill:#b16668"></path><path d="M251.08,110.55a32.16,32.16,0,0,1-3.45-.45l.13,1.08a5.27,5.27,0,0,0,2.78.61,7.26,7.26,0,0,0,3.72-.89l.12-1A17.7,17.7,0,0,1,251.08,110.55Z" style="fill:#fafafa"></path><path d="M251,114.85a6.48,6.48,0,0,0,2.12-.5,4.69,4.69,0,0,0-5.1-1.86,4.34,4.34,0,0,0-1.08.46A4.41,4.41,0,0,0,251,114.85Z" style="fill:#f28f8f"></path><path d="M244.36,97.94l-4,2a2.32,2.32,0,0,1,1-3.07A2.16,2.16,0,0,1,244.36,97.94Z" style="fill:#263238"></path><path d="M241.65,102.29a1.82,1.82,0,0,0,3.63-.38,1.82,1.82,0,1,0-3.63.38Z" style="fill:#263238"></path><path d="M255.18,100.64a1.82,1.82,0,1,0,1.63-2A1.84,1.84,0,0,0,255.18,100.64Z" style="fill:#263238"></path><path d="M259.33,97.57l-4.35-1a2.14,2.14,0,0,1,2.61-1.7A2.34,2.34,0,0,1,259.33,97.57Z" style="fill:#263238"></path><polygon points="249.8 99.97 250.81 106.99 255.34 105.25 249.8 99.97" style="fill:#f0997a"></polygon></g></g></g></g><g id="freepik--character-1--inject-61"><g id="freepik--Character--inject-61"><path id="freepik--arm--inject-61" d="M57.31,111.09c6.11-1.07,8.73,1.67,10,2.81s8.84,8,8.84,8l9.51-4L88,124.69s-6,5.5-7.61,6.88-4.7,3.24-7.54,1.2-11.14-9-11.14-9Z" style="fill:#f0997a"></path><path id="freepik--Shoulder--inject-61" d="M75.58,117.59c-9.38,0-15.12,2.09-16.39,10.09s-3.26,20.54-3.26,20.54l19.65-.14Z" style="fill:#37474f"></path><g id="freepik--bottom--inject-61"><path d="M60.07,378.4a16.39,16.39,0,0,0,2.42-10c0-.52,0-7.83-.46-17.59l20.74-.28C80.89,361.3,79,370.85,79,372.29a4.63,4.63,0,0,0-.17.91c-.15,5.08-6.25,7.68-11,11a88.81,88.81,0,0,1-12.91,7.59c-3.46,1.55-10.4,1.53-11.21-.58C49.48,387.15,57,384.12,60.07,378.4Z" style="fill:#ffa8a7"></path><path d="M33.76,396.4c-.29,0-.82,3.07.74,4.42,1.81,1.55,7.14,4.16,14.3,3.46s11.07-2.71,14-4.92,7-5.32,10.24-5.92c3-.55,6.3-1.77,7.28-2.63s1-4.78,1-4.78Z" style="fill:#263238"></path><path d="M79.15,370.85s.54,0,.7.95c.19,1.08.35,4.23.77,6a29.85,29.85,0,0,1,.46,9.55c-.44,2-5.36,3.28-8.52,4.34a40.27,40.27,0,0,0-10.27,5.84c-3.42,2.55-10.53,5-15.19,5-7.1-.07-11.64-2-13-4.48-1.87-3.39.93-6.39,3.75-8,6-3.41,12.84-5.57,18.31-10a7.16,7.16,0,0,0,2.38-2.6,14.37,14.37,0,0,0,1.08-3.87,2.16,2.16,0,0,1,.24-.82,2.22,2.22,0,0,1,1.67-.75,23.22,23.22,0,0,1,4.7-.31,7.3,7.3,0,0,1,4.57,1.72c1,1,.7,2.86,1.52,4.07a1,1,0,0,0,.79.53,1,1,0,0,0,.74-.49,27.45,27.45,0,0,0,1.36-2.43,7.23,7.23,0,0,1,2.32-2.08,3.45,3.45,0,0,0,1.24-1.1A6.18,6.18,0,0,0,79.15,370.85Z" style="fill:#37474f"></path><path d="M41.16,388.33c8.92-.75,14.77,8.54,15.11,12.29a26.81,26.81,0,0,1-9.17,1.9c-7.1-.07-11.94-2-13.29-4.49C32.22,395.15,33.8,390.79,41.16,388.33Z" style="fill:#fafafa"></path><path d="M54.13,390.22a.49.49,0,0,0,.32-.1.47.47,0,0,0,.08-.67,12.39,12.39,0,0,0-9.2-3.72.48.48,0,1,0,.08,1A11.46,11.46,0,0,1,53.74,390,.5.5,0,0,0,54.13,390.22Z" style="fill:#f0f0f0"></path><path d="M58.61,387.87a.46.46,0,0,0,.32-.1.46.46,0,0,0,.09-.67,12.34,12.34,0,0,0-9.2-3.71.48.48,0,0,0-.46.51.49.49,0,0,0,.54.44,11.46,11.46,0,0,1,8.33,3.35A.48.48,0,0,0,58.61,387.87Z" style="fill:#f0f0f0"></path><path d="M62.78,385.17a.56.56,0,0,0,.33-.1.47.47,0,0,0,.08-.67,12.35,12.35,0,0,0-9.2-3.72.48.48,0,1,0,.08.95A11.48,11.48,0,0,1,62.4,385,.54.54,0,0,0,62.78,385.17Z" style="fill:#f0f0f0"></path><path d="M66.87,382.46a.55.55,0,0,0,.32-.1.47.47,0,0,0,.1-.67c-1.91-2.41-6.32-4.08-10.06-3.78a.48.48,0,0,0-.46.51.49.49,0,0,0,.54.44c3.37-.26,7.48,1.27,9.18,3.41A.49.49,0,0,0,66.87,382.46Z" style="fill:#f0f0f0"></path><path d="M140,348.18c.32,11.63.77,23.55,1.54,29.77.32,2.57,3.12,19.9,2.92,25.32-.31,8.14-11.1,8.53-12.35,3.86s-4.72-25.13-5.07-27.21c-1.11-7.72-5.34-17.18-9.16-31.24Z" style="fill:#ffa8a7"></path><path d="M128.91,411c.51,4.68,1.42,7.76,3.3,10.43s5.22,3.38,8.53,2.42,7.48-3.32,8.25-7.42,1.2-6.9.23-11.22Z" style="fill:#263238"></path><path d="M141.36,376.28c1.38,0,2.09,6.33,3.18,12.61,1.17,6.73,3.42,9.43,4.45,14.94,1.16,6.3.2,9.19-2,13.13s-10.23,8.1-14.56,2.8c-3.52-4.32-3.9-9.28-3.89-15.63a136.19,136.19,0,0,0-1.2-16c-.49-4.74-1.82-9.48-.65-10.06.12.69.25,1.57.38,2.25a10.75,10.75,0,0,0,.57,2.51c.16.35.48.71.58.13a4,4,0,0,0-.06-1.19c-.28-1.74.64-1.92,1.13-2.08a60.71,60.71,0,0,1,6.35-1.16c1-.12,4.67-.45,5.17.1a3.8,3.8,0,0,1,.55,1.82c.16.94.43,1.63.44,1.33,0-.68-.19-2.45-.22-2.88s-.14-1-.16-1.38S141.41,376.68,141.36,376.28Z" style="fill:#37474f"></path><path d="M149.54,407.49a15.31,15.31,0,0,1-2.12,9.76c-2.15,3.94-10.9,8.14-15.22,2.84-2.16-2.64-2.85-5.84-3.29-9.13C131.15,406.61,145.52,404.07,149.54,407.49Z" style="fill:#fafafa"></path><path d="M131.59,403.92a.34.34,0,0,0,.17-.05c.05,0,6.31-2.84,12.58-1.76a.51.51,0,0,0,.59-.4.48.48,0,0,0-.41-.56c-6.63-1.14-13,1.74-13.24,1.86a.47.47,0,0,0-.21.66A.5.5,0,0,0,131.59,403.92Z" style="fill:#f0f0f0"></path><path d="M143.81,397.4a.52.52,0,0,0,.42-.35.5.5,0,0,0-.35-.61c-6.27-1.7-13,1.62-13.24,1.76a.48.48,0,0,0-.18.67.53.53,0,0,0,.7.17c.05,0,6.6-3.25,12.43-1.66A.55.55,0,0,0,143.81,397.4Z" style="fill:#f0f0f0"></path><path d="M143.38,393a.51.51,0,0,0,.41-.34.47.47,0,0,0-.33-.61c-6.9-2-13.26,1.58-13.49,1.73a.47.47,0,0,0-.14.68.53.53,0,0,0,.71.13c.05,0,6.19-3.46,12.61-1.61A.62.62,0,0,0,143.38,393Z" style="fill:#f0f0f0"></path><path d="M142.84,388.58a.54.54,0,0,0,.41-.34.49.49,0,0,0-.33-.61c-6.47-2-13.32,1.71-13.57,1.87a.47.47,0,0,0-.16.67.52.52,0,0,0,.71.15c.06,0,6.69-3.59,12.7-1.76A.65.65,0,0,0,142.84,388.58Z" style="fill:#ebebeb"></path><path d="M129.94,192.46s1.56,15.12,3.46,46.28c1.84,30.17,2,46.13,2.23,49.77s2.53,9.55,4.38,27.5c1.61,15.63,1.1,48.37,1.1,48.37s-1.77,3.34-8.15,4.17-10.06-1.66-10.06-1.66-13.15-42.46-16-53.2-11.85-53-11.85-53l-5.63,34.91a179.93,179.93,0,0,1-1.17,25.91c-1.71,15.79-7,39.84-7,39.84A24.58,24.58,0,0,1,71,362.83c-6.68-.4-9-3.54-9-3.54s-1.9-53.05-2.34-70.89.43-71.93,2-95.13Z" style="fill:#37474f"></path><path d="M70.24,224.3c1.51,6.08,10.05,9.13,14.72,10.08l6.27,29.23-1.74,35,5.6-35.93-6.33-31.94S77.58,231.26,70.24,224.3Z" style="fill:#263238"></path></g><g id="freepik--top--inject-61"><g id="freepik--arm--inject-61"><path d="M118.61,77.85c-.25-2.13-.52-4.25-.77-6.37a12.11,12.11,0,0,1-.12-2.69,4.09,4.09,0,0,1,1-2.45c.43-.47,1.24-.77,1.68-.3a1.33,1.33,0,0,1,.26.5l3.63,9.82A23.8,23.8,0,0,0,126,79.25a23.57,23.57,0,0,1,1.68,3.51c.62,1.95,1.53,4.12,1.81,4.93a16.7,16.7,0,0,0,6.83,9c5.95,4.17,20.07,11.66,30.56,19.28,4.29,3.12,7.37,9.77,9,14.78,2.84,8.67-.43,12.44-6.48,11.6a31.67,31.67,0,0,1-17.55-8.69c-10.33-9.76-20.87-22.92-26.32-27.47-1.33-1.27-3.84-2.22-4.67-3.12a8.71,8.71,0,0,1-2.36-5.89,51.73,51.73,0,0,1,.51-7.14,34,34,0,0,0,.28-5.7C119.1,82.18,118.86,80,118.61,77.85Z" style="fill:#ffa8a7"></path><path d="M117.72,68.79a4.09,4.09,0,0,1,1-2.45c.43-.47,1.24-.77,1.68-.3a1.33,1.33,0,0,1,.26.5l3.7,10a.76.76,0,0,0,0,.11,61.56,61.56,0,0,0-1.13,9.66c0,3.19.8,5.8.81,9a32.32,32.32,0,0,1-1,9.26,10.52,10.52,0,0,1-2.2-1.46,8.71,8.71,0,0,1-2.36-5.89,51.73,51.73,0,0,1,.51-7.14,34,34,0,0,0,.28-5.7c-.17-2.17-.41-4.34-.66-6.5s-.52-4.25-.77-6.37A12.11,12.11,0,0,1,117.72,68.79Z" style="fill:#f28f8f"></path></g><g id="freepik--chest--inject-61"><path d="M61.45,145.45c.8-20.71,10.5-26.4,14.13-27.86l21.1.17c4.49.54,21,3.1,26.29,4.46,3.39.88,7.24,5.84,8.84,16.74,1.3,8.86,2.95,12.33,1.87,20.15A219.24,219.24,0,0,0,131,189.62c-.06,7.15.83,14.14,1.5,23-17.33,12.91-61.42,14.9-71.8,1,0,0,.07-34.44,0-41.59S61.23,151.06,61.45,145.45Z" style="fill:#73D78F"></path><g id="freepik--head--inject-61"><path d="M86.41,109.19c-.9-5-5.94-10.21-8.23-14.57-2.2-4.2-3.53-7.46-3.31-11.43.12-2.35,1.57-5.55,3.31-6.24a10.92,10.92,0,0,1,7.9-13.69,36.51,36.51,0,0,0,4.8-1.38c1.89-.81,2.3-2.34,3.82-3.64,2.6-2.26,7-2.35,8.74,1,1.73-2.27,4.1-2.24,6.85-1.56a4.66,4.66,0,0,1,3.63,5.25c3.65-2.08,7,.47,7.39,2.63.26,1.58-.07,2.93,1,4.34,1.18,1.59,3.4,1.55,4.06.25.39,2.25-.47,4-2.92,3.87a5.17,5.17,0,0,1,.68,4.31,4.69,4.69,0,0,1-4.2,3.26A7.17,7.17,0,0,1,116,87.68c-3.69,1.8-7.79,2.41-11.77,3.27L99.5,92c-.28.06-1.71.16-1.87.41Z" style="fill:#263238"></path><path d="M80.27,102.75a4,4,0,0,0,5.61-1.23l-.2,16.94c-4.74,8,17,9,21.86,2.77l.24-7.31a22.59,22.59,0,0,0,4.81-.11c3.93-.58,7.21-4,8.29-8.24a45.21,45.21,0,0,0,.38-17.08,14.69,14.69,0,0,1-.25-4.13c.35-3.67-.33-5.79-1.31-8.86-4.36-3.45-16.62-4.07-25.91,1.69,2,4.75.83,9.6-3.2,11.76.21,1.5.43,5.29-2,5.24-1.78,0-1.92-2.26-3.76-4.21s-6.11-2.44-7.73.47C74.79,94.52,76.38,100.47,80.27,102.75Z" style="fill:#ffa8a7"></path><path d="M107.78,113.92c-6.25-.68-12.19-1.36-15.48-5.85a39.47,39.47,0,0,1-3.83-7.37A30.53,30.53,0,0,0,91.23,110c1.6,2.87,6.69,5.27,16.48,6Z" style="fill:#f28f8f"></path><path d="M103.55,88.84c.21,1.09-.59,1.36-1.64,1.55s-2,.25-2.16-.84a1.93,1.93,0,1,1,3.8-.71Z" style="fill:#263238"></path><path d="M97.61,84.75l3.72-2.91a2.49,2.49,0,0,1-.43,3.41A2.3,2.3,0,0,1,97.61,84.75Z" style="fill:#263238"></path><path d="M115.68,80.94l3.71,3a2.28,2.28,0,0,1-3.29.43A2.5,2.5,0,0,1,115.68,80.94Z" style="fill:#263238"></path><path d="M117.86,88.86c-.14,1.1-1,1.1-2.07,1s-1.9-.37-1.76-1.47a1.93,1.93,0,1,1,3.83.51Z" style="fill:#263238"></path><path d="M115,94.84l-6.09,2.76-2-12C109.14,84.8,112.11,90.29,115,94.84Z" style="fill:#f28f8f"></path><path d="M113.58,79.93a2.36,2.36,0,0,1,.47-.62,1.84,1.84,0,0,1,1.36-.54c.23,0,.1.35-.07.37a2,2,0,0,0-.33.09h0l-.08,0-.06,0h0l-.24.15h0l-.06,0-.1.09,0,0,0,0-.08.12a.41.41,0,0,0-.07.11l0,0s0,0,0,.05a1.39,1.39,0,0,0-.06.13l0,.08s0,.06,0,0,0,0,0,0a.19.19,0,0,0,0,.07,1.17,1.17,0,0,1-.09.32.33.33,0,0,1-.13.16c0,.06-.15.13-.21.07C113.27,80.66,113.43,80.21,113.58,79.93Z" style="fill:#b16668"></path><path d="M103.14,79.71a1.58,1.58,0,0,1,.65.46,4,4,0,0,1,.44.56,3.35,3.35,0,0,1,.31.63,1.5,1.5,0,0,1,.11.36,1,1,0,0,1,0,.17V82a1.87,1.87,0,0,1-.07.22c0,.1-.22.28-.31.13a2.53,2.53,0,0,1-.13-.22,1.67,1.67,0,0,1-.08-.2c0-.1-.08-.21-.12-.31a3.83,3.83,0,0,0-.27-.58,4.2,4.2,0,0,0-.37-.49,2.68,2.68,0,0,1-.48-.53C102.74,79.85,103,79.67,103.14,79.71Z" style="fill:#b16668"></path><path d="M109.06,104.18c-1,.67-1.62-.32-3.38-1s-3.4.17-3.18-1.28,2.92-2.46,4.68-1.75S110.18,103.41,109.06,104.18Z" style="fill:#b16668"></path><path d="M105.81,103a4.29,4.29,0,0,1,.48.24,2.18,2.18,0,0,0-1.88-2.35,1.8,1.8,0,0,0-1.5.38,1.68,1.68,0,0,0-.22.47C102.34,103.17,104.06,102.3,105.81,103Z" style="fill:#f28f8f"></path></g></g><path d="M133.68,159.11s.07-3.6,11.08-7.14c19-6.11,28.77-6.42,31.37-12.15-1.16,2.15-3.57,3-6.75,2.55a31.73,31.73,0,0,1-17.55-8.71A110.19,110.19,0,0,1,143,124.6c-8.3.1-12.88-1.36-20.07-2.38C119.81,133.66,121.06,155.4,133.68,159.11Z" style="fill:#37474f"></path></g><g id="freepik--Girl--inject-61"><path d="M56,148.31C54.2,157.94,57,172,57,172c-2.19,1.08-5.53,5.62-7.55,8.65s-2.77,5.31-4.85,5.86c-2.71.73-4.16,2.61-4,5.74.17,3.51-2,4-1,8.84s7.07,7.37,8.28,6.14,1.51-5.39,2.31-7.79c1.08-3.29,1.19-4.31,3.39-6.21l10-8.62c6.12-5.3,6.66-5.68,8.37-7.65s4.06-7.41,2.62-18c-.8-5.9-2.7-13.6-3.57-15.36C68.6,138.88,57.07,142.79,56,148.31Z" style="fill:#ffbda7"></path><path d="M49.44,180.65c2-3,5.36-7.57,7.55-8.65a93.51,93.51,0,0,1-1.58-17H68.55c-1.37,6-7.16,10.3-7.16,10.3a87.19,87.19,0,0,1,4.93,9,15.52,15.52,0,0,1,1.45,6.64l-4.26,3.69-10,8.62A7.53,7.53,0,0,0,51,197c-.75-2.87-2-8.56-1.32-12.05l-1.91-1.48C48.22,182.61,48.75,181.68,49.44,180.65Z" style="fill:#f0997a"></path><path d="M59.13,164.11c5-2.55,13.41-10.08,11.67-21.49L32.54,147s-3.6,5.46-2.1,11.23S37.63,173.61,59.13,164.11Z" style="fill:#fafafa"></path><path d="M33.67,166.67c5.61,8.32,17.9,17.17,17.9,17.17-.87,2.13-.07,7.55.61,11s1.77,5.66.61,7.33c-1.5,2.19-1.23,4.48,1.16,6.73,2.67,2.53,1.37,4.24,5.63,7.24s10.64,1.24,10.66-.41-2.77-5-3.92-7.23c-1.57-3.12-2.23-3.95-2-6.71s.39-3.94,1.22-12.5c.75-7.67.88-8.29.74-10.8s-4.6-10.26-7.8-15.43-14.62-9.83-21.63-8.7C31.3,155.31,30.45,161.91,33.67,166.67Z" style="fill:#ffbda7"></path><path d="M44.36,112.85c-5.8,2.53-11.29,4.7-11.73,11.18s.74,15.58.41,18.45a14.2,14.2,0,0,1-1.24,4.59s8.22,10.42,24.78,5.41c10.71-3.24,14.11-9.38,14.5-10.45,0,0-.78-15.2-2.64-22.34-1.26-4.82-3.32-6.21-5.9-7.46C56.58,109.34,44.36,112.85,44.36,112.85Z" style="fill:#73D78F"></path><path d="M44.36,112.85c-5.8,2.53-11.29,4.7-11.73,11.18s.74,15.58.41,18.45a14.2,14.2,0,0,1-1.24,4.59s8.22,10.42,24.78,5.41c10.71-3.24,14.11-9.38,14.5-10.45,0,0-.78-15.2-2.64-22.34-1.26-4.82-3.32-6.21-5.9-7.46C56.58,109.34,44.36,112.85,44.36,112.85Z" style="fill:#fff;opacity:0.30000000000000004"></path><path d="M58.35,114.57V118c-.69,1.71-4.11,2.79-6.62,2s-4.21-1.34-5.79-3.28A5.43,5.43,0,0,1,44.52,113v-7.1Z" style="fill:#ffbda7"></path><path d="M58.09,114.88a15.35,15.35,0,0,1-7.81-2.16c-2-1.13-3.63-3.16-3.86-4.8-.06,2.34.87,4.44,3.68,6.13a25.94,25.94,0,0,0,8.25,2.9v-2Z" style="fill:#f0997a"></path><path d="M40.4,93.23c-1.15,5-4.06,9.12,1.37,14.21a1.65,1.65,0,0,0,2.74-.46,21.72,21.72,0,0,0,4.39,4.8,15.16,15.16,0,0,0,11.05,3c4.93-.91,8.46-4,9.43-7.88a13.29,13.29,0,0,0-.7-8.67,6.66,6.66,0,0,1-.83-2.81c.06-1.69-.36-6.25-2.36-8.85-2.12-2.76-5.43-5.15-13.73-4A14.68,14.68,0,0,0,40.4,93.23Z" style="fill:#ffbda7"></path><path d="M48.9,111.78a15.2,15.2,0,0,0,11.74,2.59c4-.87,8-4,8.71-8.21a14.56,14.56,0,0,0-.67-8,13.68,13.68,0,0,1,1,8c-.65,4.35-4.78,7.74-9,8.57a14.37,14.37,0,0,1-11.84-3Z" style="fill:#f0997a"></path><path d="M57.35,101.11v0a1.43,1.43,0,0,0-.35-.65,2,2,0,0,0-.8-.62,2.12,2.12,0,0,0-1.76,0,2.17,2.17,0,0,0-1,1c0,.09-.16.28-.13.38s.33,0,.44-.08a3.25,3.25,0,0,1,3.15,0C57,101.18,57.33,101.38,57.35,101.11Z" style="fill:#37474f"></path><path d="M67,97.68s0,0,0,0a1.26,1.26,0,0,0-.5-.35,1.61,1.61,0,0,0-.81-.16,1.72,1.72,0,0,0-1.28.66A1.77,1.77,0,0,0,64,98.91c0,.08,0,.26,0,.33s.23-.14.29-.22a2.76,2.76,0,0,1,.94-.86,2.63,2.63,0,0,1,1.35-.31C66.78,97.85,67.08,97.89,67,97.68Z" style="fill:#37474f"></path><path d="M60.36,102.92a.36.36,0,0,0,.07.18.4.4,0,0,0,.16.08c.85.25,1.93-.22,1.83-1.19C62.28,100.65,60.22,101.91,60.36,102.92Z" style="fill:#f0997a"></path><path d="M63,107.83c-.49.5-1.06.2-2.72.37s-2.09.53-2.71,0c-1-.89.52-3.22,2.82-3.17C63.22,105.1,63.6,107.21,63,107.83Z" style="fill:#b16668"></path><path d="M60.42,108c.17,0,.45,0,.6,0a2.13,2.13,0,0,0-2.43-1.39,1.65,1.65,0,0,0-1.17.71.89.89,0,0,0,.24.69C58.23,108.6,58.76,108.07,60.42,108Z" style="fill:#f28f8f"></path><path d="M63.43,94.44c-.12.08-.24.16-.35.25a2.62,2.62,0,0,0-.57.53.8.8,0,0,0-.07,1.06.38.38,0,0,0,.3.15.5.5,0,0,0,.29-.16,5,5,0,0,0,.48-.55l.72-.89a2.72,2.72,0,0,0,.32-.46.19.19,0,0,0,0-.18s-.06,0-.09,0A1.61,1.61,0,0,0,63.43,94.44Z" style="fill:#b16668"></path><path d="M55.08,96.32h.43a2.54,2.54,0,0,1,.78.12.78.78,0,0,1,.65.82.35.35,0,0,1-.16.3.44.44,0,0,1-.32,0,4.32,4.32,0,0,1-.71-.17l-1.1-.32a2.62,2.62,0,0,1-.53-.2.15.15,0,0,1-.09-.14s0-.05,0-.08A1.53,1.53,0,0,1,55.08,96.32Z" style="fill:#b16668"></path><path d="M62.6,88.47a2,2,0,0,0-.14.25A21.44,21.44,0,0,1,61,91.65a3.73,3.73,0,0,1-2.61,1.78.82.82,0,0,1-.41-.05c-.27-.13-.35-.47-.42-.76-.21-.91-.79-1.92-1.72-2a9.16,9.16,0,0,1-4.63,6.27,6.59,6.59,0,0,0-2.35,1.82c-.43.7-.78,1.6-1.59,2s-1.23-.89-1.48-1.47a2.68,2.68,0,0,0-1.49-1.41,3.83,3.83,0,0,0-4,.78,4.32,4.32,0,0,0-1.05,3.33,7.11,7.11,0,0,0,.67,2.8,5.16,5.16,0,0,0,1.7,2.11,2.27,2.27,0,0,0,2.84.14v2.94a19,19,0,0,1-4.85-4.62A14.05,14.05,0,0,1,37,95.44c.22-4,1.57-6.59,3.52-7.37,0,0,.12-1.15.15-1.28a6.15,6.15,0,0,1,.49-1.36A7.7,7.7,0,0,1,43,83.15c.69-.63,1.54-1,2.2-1.66A9.14,9.14,0,0,1,48,79.57c1-.42,2.07-.65,3.06-1.08a4.16,4.16,0,0,0,2.33-2.14.92.92,0,0,1,.23-.41.73.73,0,0,1,.38-.11,3.08,3.08,0,0,1,3.12,2.83c1-.23,2-.43,3-.58a6,6,0,0,1,3.33.19,1.67,1.67,0,0,0-1.29,2.1,5.52,5.52,0,0,0,4.69.42c.27-.1.6-.21.82,0a.79.79,0,0,1,.2.33c.3.83.59,1.83,0,2.51-.14.17-.34.33-.34.54s.33.49.59.64a3.92,3.92,0,0,1,1.34,1.46A6.85,6.85,0,0,1,70.62,90a3.79,3.79,0,0,1-1.87,3.26,1.09,1.09,0,0,0-.77-1,.82.82,0,0,1-.4.72c-.19-.37,0-.65-.1-1a3.65,3.65,0,0,0-.53-1,4.42,4.42,0,0,0-3.53-2.72.89.89,0,0,0-.56.06A.65.65,0,0,0,62.6,88.47Z" style="fill:#37474f"></path></g><path id="freepik--Hand--inject-61" d="M30.82,159.51c.62,1.89,5.55.62,9.11,1.83a37.51,37.51,0,0,0,9.23,1.57c2.23.19,1.9,2-.45,3.18s-7,.4-7.67.72-2.46,1.88.94,3.51,7.78,3.28,9,5.56-9.62,5.57-12.82,2.6-3.35-2.45-5-4.47c-5.32-6.33-4.38-13.49-3-17.9A13.82,13.82,0,0,0,30.82,159.51Z" style="fill:#ffa8a7"></path><g id="freepik--girl-arms--inject-61"><path d="M37,117.23c-5.61,2.36-7.23,11.42-1.61,16.17,3.6,3,5,4.66,10.17,8.18,5.5,3.78,7.36,3.24,10.22,2.58,7.08-1.63,7.55-2.93,13.82-4.94a33.52,33.52,0,0,0,5.65-1.49A16.41,16.41,0,0,1,80,136.41a3.87,3.87,0,0,0,1.69-.54c.32-.3.28-1.49-.25-1.64.46-.08.9-.13,1.08-.44a2.38,2.38,0,0,0-.24-1.8,2.25,2.25,0,0,0-.57-.43s.52-1-.71-1.8a2.74,2.74,0,0,0,.19-1.85c-.17-.69-.37-1.06-1.41-1.21a5.63,5.63,0,0,0-1.68,0,1.85,1.85,0,0,0,.82-1c.13-.63-.47-.43-1-.53s-1.66-.29-2.07-.4-.87.18-1.88.57a15.6,15.6,0,0,0-2.72,1.27c-.32.29-1.07,1.17-2.15,2.39-.8.91-1.37,1.1-3.46,1.35-3.72.44-10.44,2-10.44,2l-10.2-9.81S41.27,118.14,37,117.23Z" style="fill:#ffbda7"></path><path d="M75.91,124.72a1.34,1.34,0,0,0-.82.16l-.81.35c-.54.22-1.08.45-1.61.69-.27.13-.53.25-.79.39a2.08,2.08,0,0,0-.71.5c-.41.45-.81.92-1.21,1.38a12.64,12.64,0,0,1-1.27,1.37,3.61,3.61,0,0,1-1.66.67c-1.13.21-9.54,2-11.77,2,0,0,10.64-2.1,11.75-2.29a3.52,3.52,0,0,0,1.56-.61,17.59,17.59,0,0,0,1.25-1.32c.41-.46.82-.92,1.25-1.36a1.55,1.55,0,0,1,.36-.31l.4-.22c.26-.13.53-.25.8-.36.54-.23,1.09-.44,1.63-.64l.82-.32A1.35,1.35,0,0,1,75.91,124.72Z" style="fill:#f0997a"></path><path d="M78.11,126.67s-1.42.17-1.8.25a8.15,8.15,0,0,1-2.1.55.8.8,0,0,1-.78-.5s.33.32,1.27.11,1.22-.84,1.19-1.25c.22.19.1.88.1.88A5.29,5.29,0,0,1,78.11,126.67Z" style="fill:#f0997a"></path><path d="M81,129.76a8.12,8.12,0,0,0-2.5-.44,5.12,5.12,0,0,1,2.64.05Z" style="fill:#f0997a"></path><path d="M81.72,131.56a3.43,3.43,0,0,0-1.2-.16c-.76,0-1.42.07-1.42.07a7.15,7.15,0,0,1,1.75-.32,2.55,2.55,0,0,1,1,.14Z" style="fill:#f0997a"></path><path d="M81.45,134.23c-.62-.09-2.1-.19-2.64-.2a10.18,10.18,0,0,1,2.47-.11,1.35,1.35,0,0,1,.71.21Z" style="fill:#f0997a"></path></g><g id="freepik--Cry--inject-61"><polygon points="36.5 109.39 30.07 106.59 25.77 109.04 17.65 104.45 16.38 111.68 26.65 113.53 30.94 109.4 36.5 109.39" style="fill:#e0e0e0"></polygon><polygon points="35.56 107.19 29.21 103.95 24.2 105.62 18 99.91 22.01 96.72 25.87 101.81 28.93 101.15 35.56 107.19" style="fill:#e0e0e0"></polygon><polygon points="34.74 110.75 31.54 111.52 26.73 116.3 28.87 118.13 31.95 112.74 34.74 110.75" style="fill:#e0e0e0"></polygon></g></g></g><g id="freepik--Bolts--inject-61"><g id="freepik--bolts--inject-61"><polygon points="127.31 38.43 134.39 38.16 143.8 22.78 137.43 44.19 130.32 44.61 121.89 60.74 127.31 38.43" style="fill:#73D78F"></polygon><polygon points="152.35 52.37 159.46 57.52 180.39 49.71 157.81 65.72 150.56 60.71 130.03 70 152.35 52.37" style="fill:#73D78F"></polygon><polygon points="152.36 89.33 155.33 84.59 169.55 84.22 152.41 80.15 149.32 84.83 134.99 84.25 152.36 89.33" style="fill:#73D78F"></polygon></g></g></svg>
